<?xml version="1.0" encoding="UTF-8" standalone="no"?>
<!-- Created with Inkscape (http://www.inkscape.org/) -->
<svg xmlns:rdf="http://www.w3.org/1999/02/22-rdf-syntax-ns#" xmlns="http://www.w3.org/2000/svg" height="148.505" width="287.326" version="1.1" xmlns:cc="http://creativecommons.org/ns#" xmlns:xlink="http://www.w3.org/1999/xlink" xmlns:dc="http://purl.org/dc/elements/1.1/"><script xmlns=""/>

 <metadata>

  <rdf:RDF>

   <cc:Work rdf:about="">

    <dc:format>image/svg+xml</dc:format>

    <dc:type rdf:resource="http://purl.org/dc/dcmitype/StillImage"/>

    <dc:title/>

   </cc:Work>

  </rdf:RDF>

 </metadata>

 <defs>

  <linearGradient id="b" y2="158.935" gradientUnits="userSpaceOnUse" x2="119.017" gradientTransform="matrix(3.54331,0,0,3.54331,-228.386,-451.9212)" y1="161.009" x1="119.017">

   <stop stop-color="#3C6" offset="0"/>

   <stop stop-color="#063" offset="1"/>

  </linearGradient>

  <style type="text/css"/>

  <linearGradient id="linearGradient3074" y2="136.907" gradientUnits="userSpaceOnUse" x2="91.5523" gradientTransform="matrix(3.54331,0,0,3.54331,-228.386,-451.9212)" y1="136.907" x1="90.4872">

   <stop stop-color="#063" offset="0"/>

   <stop stop-color="#3C6" offset="1"/>

  </linearGradient>

 </defs>

 <rect fill-rule="evenodd" height="148.505" width="296.291" y="4.88281E-7" x="-4.483" fill="#000"/>

 <polygon fill-rule="evenodd" transform="matrix(3.54331,0,0,3.54331,-228.386,-451.9212)" points="85.021,138.182,85.4993,137.679,89.6884,137.679,90.1065,138.182" fill="#3C6"/>

 <path fill-rule="evenodd" fill="#063" d="m98.835,12.456-1.3125,0.0312-1.28125,0.0937-1.28125,0.15625-1.25,0.25-1.21875,0.28125-1.21875,0.3125-1.1875,0.40625-1.15625,0.46875-1.15625,0.5-1.09375,0.5625-1.0625,0.59375-1.0625,0.65625-1,0.71875-0.96875,0.75-0.9375,0.78125-0.90625,0.84375-0.875,0.875-0.8125,0.90625-0.75,0.9375-0.75,1-0.6875,1.03125-0.625,1.0625-0.59375,1.09375-0.53125,1.09375-0.46875,1.15625-0.4375,1.1875-0.375,1.1875-0.3125,1.21875-0.25,1.25-0.1875,1.25-0.15625,1.28125-0.0625,1.3125,1.6875-1.78125,0.0937-0.6875,0.15625-1.1875,0.25-1.1875,0.3125-1.125,0.34375-1.125,0.40625-1.09375,0.4375-1.0625,0.5-1.0625,0.5625-1,0.59375-1,0.625-0.96875,0.6875-0.9375,0.71875-0.875,0.78125-0.875,0.8125-0.8125,0.8125-0.78125,0.90625-0.75,0.90625-0.6875,0.9375-0.65625,0.96875-0.625,1-0.5625,1.0625-0.53125,1.0625-0.46875,1.0625-0.40625,1.125-0.375,1.125-0.3125,1.15625-0.28125,1.1875-0.1875,1.1875-0.15625,1.21875-0.0937,1.21875-0.0312h89.7188l1.25,0.0312,1.25,0.0937,1.21875,0.15625,1.1875,0.21875,1.15625,0.25,1.15625,0.34375,1.125,0.375,1.125,0.4375,1.0625,0.5,1.0625,0.53125,1,0.59375,1,0.625,0.9375,0.6875,0.9375,0.71875,0.875,0.78125,0.84375,0.8125,0.8125,0.84375,0.78125,0.875,0.71875,0.9375,0.6875,0.9375,0.625,0.96875,0.59375,1.03125,0.53125,1.0625,0.5,1.0625,0.4375,1.125,0.375,1.125,0.34375,1.15625,0.25,1.15625,0.21875,1.1875,0.15625,1.21875,0.0937,1.25,0.0312,1.25v19.4063l-0.0312,0.5625-0.0312,0.5625-0.0312,0.5625-0.0625,0.5625-0.0625,0.53125-0.0937,0.5625-0.0937,0.53125-0.0937,0.53125-0.125,0.53125-0.125,0.53125-0.15625,0.53125-0.15625,0.53125-0.15625,0.5-0.1875,0.5-0.1875,0.53125-0.1875,0.5-0.21875,0.5-0.21875,0.46875-0.21875,0.5-0.25,0.46875-0.21875,0.46875-0.28125,0.46875-0.25,0.4375-0.3125,0.46875-0.28125,0.4375-0.28125,0.46875-0.3125,0.40625-0.3125,0.4375-0.34375,0.4375-0.3125,0.40625-1.28125,1.5,2.125,0.0625,0.375-0.4375,0.34375-0.4375,0.34375-0.4375,0.34375-0.46875,0.34375-0.46875,0.3125-0.46875,0.3125-0.46875,0.28125-0.5,0.3125-0.46875,0.28125-0.5,0.25-0.5,0.25-0.53125,0.25-0.5,0.25-0.53125,0.21875-0.53125,0.1875-0.53125,0.21875-0.53125,0.1875-0.5625,0.15625-0.53125,0.1875-0.5625,0.15625-0.5625,0.125-0.5625,0.125-0.59375,0.125-0.5625,0.0937-0.5625,0.0937-0.59375,0.0625-0.59375,0.0625-0.59375,0.0625-0.59375,0.0312-0.59375,0.0312-0.59375v-19.4375l-0.0312-1.34375-0.125-1.3125-0.15625-1.28125-0.21875-1.28125-0.3125-1.25-0.34375-1.25-0.40625-1.1875-0.46875-1.1875-0.53125-1.15625-0.5625-1.125-0.625-1.09375-0.6875-1.03125-0.71875-1.03125-0.78125-0.96875-0.8125-0.96875-0.84375-0.875-0.90625-0.875-0.96875-0.8125-0.96875-0.78125-1.03125-0.71875-1.03125-0.6875-1.09375-0.625-1.125-0.59375-1.15625-0.5-1.1875-0.46875-1.1875-0.40625-1.25-0.375-1.25-0.28125-1.28125-0.21875-1.28125-0.1875-1.3125-0.0937-1.34375-0.0312h-89.625z"/>

 <path fill-rule="evenodd" fill="url(#linearGradient3074)" d="m98.7188,28.6562-0.875,0.0625-0.90625,0.125-0.875,0.21875-0.84375,0.28125-0.8125,0.375-0.78125,0.4375-0.71875,0.5-0.65625,0.5625-0.625,0.625-0.5625,0.65625-0.5,0.71875l-0.4375,0.7814-0.375,0.8125-0.28125,0.84375-0.0625,0.25,1.46875,1.78125,0.125-0.75,0.15625-0.71875,0.25-0.6875,0.3125-0.65625,0.34375-0.65625,0.40625-0.59375,0.46875-0.5625,0.53125-0.5,0.5314-0.4685,0.5938-0.4063,0.6562-0.375,0.65625-0.28125,0.6875-0.25,0.71875-0.1875,0.75-0.09375,0.707031-0.03125h89.6992l0.8125,0.03125,0.8125,0.125,0.75,0.21875,0.75,0.25,0.6875,0.34375,0.65625,0.40625,0.625,0.46875,0.5625,0.5,0.5,0.5625,0.46875,0.625,0.40625,0.65625,0.34375,0.6875,0.25,0.75,0.21875,0.75,0.125,0.8125,0.0312,0.8125v18.8125l-0.0312,0.8125-0.125,0.78125-0.1875,0.75-0.28125,0.71875-0.3125,0.71875-0.40625,0.65625-0.4375,0.59375-0.53125,0.5625-0.53125,0.53125-0.625,0.4375-0.625,0.40625-0.6875,0.34375-0.71875,0.28125-0.75,0.21875-0.78125,0.125-0.8125,0.0625h-72.625l1.625,1.59375,71.0938,0.03125,0.9375-0.0625,0.96875-0.1875,0.90625-0.25,0.875-0.34375,0.8125-0.40625,0.78-0.4691,0.75-0.5625,0.656-0.625,0.625-0.6875,0.53125-0.75,0.5-0.78125,0.375-0.84375,0.34375-0.875,0.219-0.9374,0.15625-0.9375,0.0312-0.9375v-18.9375l-0.0312-0.9375-0.156-0.9688-0.25-0.9375-0.3125-0.875-0.40625-0.84375-0.5-0.8125-0.5625-0.71875-0.59375-0.6875-0.6875-0.625-0.75-0.5625-0.8125-0.5-0.845-0.4063-0.906-0.3125-0.906-0.25-0.969-0.1562-0.938-0.0313z"/>

 <path fill-rule="evenodd" fill="#063" d="m205.96,74.206,1.28125,1.5,0.3125,0.40625,0.34375,0.4375,0.3125,0.40625,0.3125,0.4375,0.28125,0.4375,0.3125,0.46875,0.25,0.4375,0.28125,0.46875,0.28125,0.46875,0.21875,0.46875,0.25,0.46875,0.21875,0.5,0.21875,0.46875,0.21875,0.5,0.21875,0.53125,0.15625,0.46875,0.1875,0.53125,0.15625,0.53125,0.15625,0.5,0.15625,0.53125,0.125,0.53125,0.125,0.5,0.0937,0.5625,0.0937,0.53125,0.0937,0.5625,0.0625,0.53125,0.0625,0.5625,0.0312,0.5625,0.0312,0.5625,0.0312,0.5625v19.4063l-0.0312,1.25-0.0937,1.25-0.15625,1.21875-0.21875,1.1875-0.25,1.15625-0.34375,1.15625-0.375,1.125-0.4375,1.125-0.5,1.0625-0.53125,1.0625-0.59375,1-0.625,1-0.6875,0.9375-0.71875,0.9375-0.78125,0.875-0.8125,0.84375-0.84375,0.8125-0.875,0.78125-0.9375,0.71875-0.9375,0.6875-1,0.625-1,0.59375-1.0625,0.53125-1.0625,0.5-1.09375,0.4375-1.15625,0.375-1.15625,0.34375-1.15625,0.25-1.1875,0.21875-1.21875,0.15625-1.25,0.0937-1.25,0.0312h-89.6875l-1.25-0.0312-1.21875-0.0937-1.1875-0.15625-1.1875-0.1875-1.15625-0.28125-1.125-0.3125-1.125-0.375-1.0625-0.40625-1.0625-0.46875-1.0625-0.53125-1-0.5625-0.96875-0.625-0.9375-0.65625-0.90625-0.6875-0.90625-0.75-0.8125-0.78125-0.8125-0.84375-0.78125-0.84375-0.71875-0.875-0.6875-0.9375-0.625-0.96875-0.59375-1-0.5625-1-0.5-1.0625-0.4375-1.0625-0.40625-1.09375-0.34375-1.125-0.3125-1.15625-0.25-1.15625-0.15625-1.1875-0.0937-0.6875-1.6875-1.65625,0.0625,1.28125,0.15625,1.28125,0.1875,1.28125,0.25,1.25,0.3125,1.21875,0.375,1.1875,0.4375,1.15625,0.46875,1.15625,0.53125,1.125,0.59375,1.09375,0.625,1.0625,0.6875,1,0.75,1,0.75,0.96875,0.8125,0.90625,0.875,0.875,0.90625,0.84375,0.9375,0.78125,0.96875,0.75,1,0.6875,1.0625,0.6875,1.0625,0.59375,1.09375,0.5625,1.15625,0.5,1.15625,0.4375,1.1875,0.40625,1.21875,0.34375,1.21875,0.28125,1.25,0.21875,1.28125,0.15625,1.28125,0.0937,1.3125,0.0312h89.625l1.34375-0.0312,1.3125-0.0937,1.28125-0.15625,1.28125-0.25,1.25-0.28125,1.25-0.34375,1.1875-0.40625,1.1875-0.46875,1.15625-0.53125,1.125-0.59375,1.09375-0.625,1.03125-0.65625,1.03125-0.71875,0.96875-0.78125,0.96875-0.8125,0.90625-0.875,0.84375-0.90625,0.8125-0.9375,0.78125-1,0.71875-1,0.6875-1.0625,0.625-1.09375,0.5625-1.125,0.53125-1.125,0.46875-1.1875,0.40625-1.21875,0.34375-1.21875,0.3125-1.25,0.21875-1.28125,0.15625-1.28125,0.125-1.34375,0.0312-1.3125v-19.4406l-0.0312-0.59375-0.0312-0.625-0.0625-0.59375-0.0625-0.59375-0.0625-0.5625-0.0937-0.59375-0.0937-0.59375-0.125-0.5625-0.125-0.5625-0.125-0.5625-0.15625-0.5625-0.1875-0.5625-0.15625-0.5625-0.1875-0.53125-0.21875-0.53125-0.1875-0.5625-0.21875-0.53125-0.25-0.5-0.25-0.53125-0.25-0.5-0.25-0.5-0.28125-0.5-0.3125-0.5-0.28125-0.46875-0.3125-0.5-0.3125-0.46875-0.34375-0.4375-0.344-0.4687-0.344-0.4375-0.344-0.4375-0.375-0.4375-2.125-0.0625z"/>

 <polygon fill-rule="evenodd" transform="matrix(3.54331,0,0,3.54331,-228.386,-451.9212)" points="85.4989,159.29,85.021,158.818,90.1065,158.818,89.6879,159.29" fill="#3C6"/>

 <path fill-rule="evenodd" fill="url(#b)" d="m198.188,91.1875-1.71875,0.0625,0,18.8125-0.0625,0.8125-0.125,0.8125-0.1875,0.75-0.28125,0.75-0.3125,0.6875-0.40625,0.65625-0.46875,0.625-0.5,0.5625-0.59375,0.53125-0.59375,0.4375-0.65625,0.40625-0.71875,0.34375-0.71875,0.25-0.78125,0.21875-0.78125,0.125-0.8125,0.0312,0.0937,1.6875,0.9375-0.0625,0.96875-0.125,0.90625-0.25,0.90625-0.34375,0.84375-0.40625,0.78125-0.46875,0.75-0.5625,0.6875-0.625,0.625-0.6875,0.5625-0.75,0.5-0.78125,0.40625-0.84375l0.312-0.905,0.25-0.938,0.125-0.9375,0.0625-0.96875v-18.9062zm-107.312,19.625-1.46875,1.6875,0.0625,0.25,0.28125,0.84375,0.375,0.8125,0.4375,0.78125,0.5,0.71875,0.5625,0.65625,0.625,0.625,0.65625,0.5625,0.71875,0.5,0.78125,0.4375,0.8125,0.375,0.84375,0.28125,0.875,0.21875,0.90625,0.15625,0.875,0.0312,89.8438,0-0.0937-1.6875-89.625,0-0.78125-0.0312-0.75-0.125l0.031-22.812-0.6876-0.25-0.6562-0.312-0.6562-0.344-0.5938-0.406-0.53125-0.46875-0.53125-0.53125-0.46875-0.53125-0.40625-0.625-0.34375-0.625-0.3126-0.657-0.25-0.719-0.1562-0.719-0.125-0.75z"/>

 <path fill-rule="evenodd" fill="#063" d="m115.992,65.268v18h72.4688l0.96875,0.0312,0.78125,0.15625,0.75,0.1875,0.71875,0.28125,0.6875,0.34375,0.625,0.40625,0.625,0.46875,0.53125,0.5,0.53125,0.5625,0.4375,0.625,0.40625,0.65625,0.3125,0.6875,0.28125,0.71875,0.1875,0.78125,0.125,0.75,0.0312,0.8125,1.71875-0.0625-0.0312-0.9375-0.15625-0.9375-0.21875-0.9375-0.34375-0.875-0.375-0.84375-0.5-0.78125-0.53125-0.75-0.625-0.6875-0.65625-0.625-0.75-0.5625-0.78125-0.46875-0.8125-0.4375-0.875-0.3125-0.90625-0.25-0.96875-0.1875-1.09375-0.0312-70.9375-0.0312v-14.6562l-1.625-1.59375z"/>

 <polygon fill-rule="evenodd" transform="matrix(3.54331,0,0,3.54331,-228.386,-451.9212)" points="119.931,145.196,119.776,145.405,119.603,145.599,119.414,145.774,119.208,145.932,118.987,146.07,118.752,146.187,118.505,146.282,118.249,146.353,117.98,146.399,117.716,146.417,97.6499,146.416,97.6499,150.552,117.67,150.553,117.979,150.57,118.249,150.616,118.505,150.687,118.753,150.782,118.987,150.899,119.208,151.037,119.414,151.195,119.604,151.371,119.776,151.564,119.931,151.773,120.065,151.997,120.178,152.233,120.268,152.482,120.335,152.741,120.376,153.009,120.389,153.273,120.389,158.616,120.375,158.883,120.334,159.154,120.266,159.416,120.174,159.667,120.058,159.906,119.921,160.131,119.763,160.341,119.587,160.535,119.394,160.711,119.183,160.869,118.957,161.006,118.719,161.121,118.467,161.214,118.206,161.282,117.935,161.323,117.668,161.337,92.3201,161.337,92.0676,161.325,91.8115,161.288,91.5629,161.227,91.3247,161.145,91.0964,161.042,90.8802,160.919,90.6752,160.776,90.4872,160.618,90.3119,160.443,90.1541,160.254,90.0133,160.05,89.8901,159.832,89.7879,159.604,89.7056,159.364,89.6879,159.29,89.6879,159.29,89.6879,159.29,85.4989,159.29,85.5194,159.485,85.5709,159.818,85.6389,160.147,85.722,160.469,85.8205,160.787,85.9331,161.095,86.0606,161.398,86.2018,161.694,86.3567,161.981,86.5251,162.262,86.7045,162.531,86.899,162.795,87.1026,163.045,87.3197,163.288,87.5475,163.521,87.7839,163.74,88.0329,163.951,88.2895,164.148,88.5559,164.334,88.8327,164.508,89.1163,164.668,89.4092,164.816,89.7079,164.949,90.0151,165.068,90.3287,165.173,90.6483,165.263,90.9734,165.337,91.3041,165.395,91.6418,165.438,91.9842,165.464,92.336,165.472,117.653,165.472,118.008,165.463,118.357,165.437,118.698,165.393,119.036,165.332,119.367,165.255,119.691,165.163,120.012,165.053,120.321,164.931,120.626,164.793,120.922,164.64,121.209,164.475,121.487,164.296,121.757,164.104,122.02,163.897,122.266,163.684,122.506,163.454,122.734,163.215,122.95,162.966,123.155,162.706,123.347,162.437,123.526,162.158,123.693,161.869,123.845,161.573,123.982,161.27,124.106,160.958,124.214,160.64,124.307,160.316,124.384,159.983,124.444,159.648,124.489,159.304,124.515,158.956,124.524,158.601,124.524,153.283,124.522,153.125,124.517,152.965,124.508,152.806,124.495,152.65,124.478,152.49,124.459,152.338,124.435,152.183,124.409,152.031,124.378,151.875,124.345,151.729,124.308,151.577,124.268,151.43,124.226,151.286,124.178,151.135,124.128,150.991,124.077,150.854,124.02,150.708,123.961,150.57,123.899,150.431,123.835,150.296,123.767,150.16,123.698,150.03,123.623,149.894,123.547,149.765,123.469,149.639,123.386,149.51,123.303,149.387,123.216,149.265,123.128,149.147,123.035,149.027,122.94,148.909,122.579,148.484,122.94,148.059,123.033,147.945,123.126,147.824,123.216,147.703,123.302,147.582,123.387,147.457,123.467,147.333,123.549,147.201,123.622,147.077,123.698,146.94,123.767,146.809,123.835,146.674,123.9,146.536,123.962,146.399,124.02,146.261,124.076,146.118,124.129,145.975,124.178,145.832,124.225,145.687,124.268,145.539,124.308,145.391,124.345,145.241,124.378,145.093,124.409,144.937,124.435,144.788,124.459,144.631,124.478,144.479,124.495,144.32,124.508,144.163,124.517,144.005,124.522,143.844,124.524,143.686,124.524,138.368,124.515,138.013,124.489,137.665,124.445,137.323,124.384,136.984,124.307,136.656,124.214,136.328,124.106,136.011,123.983,135.699,123.845,135.395,123.693,135.101,123.526,134.81,123.347,134.532,123.156,134.265,122.95,134.003,122.735,133.755,122.506,133.514,122.266,133.285,122.019,133.071,121.757,132.865,121.488,132.673,121.21,132.495,120.921,132.328,120.628,132.177,120.322,132.039,120.01,131.915,119.692,131.807,119.366,131.714,119.038,131.638,118.7,131.577,118.356,131.533,118.008,131.506,117.653,131.497,92.3334,131.497,91.9857,131.505,91.642,131.531,91.3065,131.574,90.9735,131.632,90.6492,131.707,90.3281,131.797,90.0143,131.901,89.7096,132.02,89.4083,132.154,89.1163,132.301,88.8319,132.462,88.5573,132.635,88.2888,132.822,88.0329,133.018,87.784,133.229,87.5474,133.449,87.3198,133.681,87.1026,133.924,86.8996,134.174,86.7045,134.439,86.5239,134.709,86.3573,134.987,86.2015,135.276,86.0609,135.57,85.9331,135.874,85.8205,136.183,85.7216,136.501,85.6391,136.821,85.571,137.151,85.5195,137.484,85.4993,137.679,85.4993,137.679,85.4993,137.679,89.6884,137.679,89.705,137.607,89.7878,137.365,89.8903,137.137,90.0134,136.919,90.1539,136.716,90.3119,136.526,90.4867,136.351,90.6763,136.192,90.8802,136.051,91.0961,135.928,91.3246,135.824,91.5632,135.742,91.8114,135.681,92.0676,135.644,92.3195,135.632,117.668,135.632,117.935,135.646,118.206,135.687,118.467,135.755,118.719,135.848,118.958,135.963,119.183,136.1,119.394,136.258,119.588,136.435,119.763,136.629,119.921,136.838,120.058,137.064,120.174,137.303,120.266,137.553,120.334,137.815,120.375,138.086,120.389,138.353,120.389,143.696,120.376,143.96,120.335,144.229,120.268,144.488,120.178,144.736,120.065,144.973" fill="#22a14e"/>

 <path fill-rule="evenodd" fill="#033" d="M39.876,63.814,28.6317,63.812c-0.90425-0.0177-1.79716-0.0673-2.69716-0.17574-0.64524-0.09-1.26815-0.208-1.89922-0.37949-0.36956-0.11197-0.71397-0.24378-1.07433-0.39012l-0.48897-0.24839-0.45496-0.28488-0.41882-0.32173-0.38268-0.35858-0.34228-0.39402-0.30189-0.42768-0.37134-0.69661c-0.1839-0.43512-0.32599-0.86457-0.44539-1.32413-0.14138-0.62221-0.23032-1.23343-0.28843-1.87087-0.0322-0.47268-0.0496-0.94358-0.0535-1.42051l0.008-6.44032c0.0156-0.37488,0.0376-0.75011,0.0673-1.12677,0.0872-0.87626,0.22748-1.71071,0.48685-2.55543,0.12614-0.3639,0.26539-0.70193,0.43618-1.04705l0.26539-0.45673,0.31465-0.43406,0.35716-0.39755,0.39792-0.36,0.43582-0.32067,0.47233-0.28063,0.50669-0.2413,0.81815-0.29055c0.75969-0.21331,1.50945-0.34548,2.28969-0.4454,0.96377-0.1024,1.92047-0.15059,2.88779-0.1676l10.0201-0.003c0.98645,0.007,1.95519,0.0507,2.93775,0.15803,0.73418,0.0928,1.44709,0.22004,2.16567,0.40287,0.37737,0.1056,0.73595,0.22748,1.09985,0.37489,0.43299,0.19452,0.82488,0.41137,1.22102,0.675,0.22287,0.16441,0.43264,0.332,0.64098,0.51519,0.33981,0.32492,0.62752,0.65587,0.90567,1.03429,0.16229,0.24449,0.30579,0.4865,0.44221,0.74552,0.22252,0.47161,0.38445,0.93082,0.52157,1.43185,0.10028,0.43441,0.17362,0.86102,0.22996,1.30216,0.0705,0.7487,0.0758,1.48181,0.0858,2.23335h-7.59224l-0.0454-1.12925-0.0985-0.55524-0.17362-0.40606c-0.1389-0.19843-0.27036-0.34016-0.47693-0.46985-0.76394-0.42023-1.72311-0.47338-2.5774-0.49783l-7.72087-0.003c-0.83197,0.004-1.67173,0.0213-2.49732,0.15165-0.39225,0.0698-0.74374,0.15201-1.02402,0.45709-0.25972,0.36071-0.31039,0.81638-0.3639,1.24512-0.029,0.35539-0.0425,0.70618-0.0471,1.06157l0.007,5.6126,0.0521,0.62469c0.0627,0.38338,0.13783,0.71149,0.31252,1.05732l0.17681,0.25654c0.24803,0.26291,0.47976,0.3887,0.81708,0.50563,0.83233,0.22641,1.67847,0.25759,2.53418,0.2661l7.85728-0.004c0.7526-0.0213,1.51512-0.0489,2.24221-0.26114,0.27035-0.10275,0.46063-0.20728,0.65622-0.4259,0.28559-0.39792,0.33448-0.87945,0.36708-1.35815l0.0245-1.07327h7.60642l-0.0276,1.53425c-0.0461,0.96343-0.14209,1.88894-0.36106,2.8265-0.11551,0.43653-0.25158,0.84047-0.42839,1.25362l-0.23173,0.4415-0.28063,0.41882-0.32457,0.38551-0.36531,0.34866-0.40429,0.31287-0.44115,0.27425-0.47515,0.23847-0.7774,0.29055c-1.77556,0.51697-3.63331,0.59953-5.46981,0.60909zm18.9833-8.54964c0.0184,0.6548,0.0563,1.34787,0.3972,1.92401l0.16229,0.19595c0.47161,0.41386,1.08602,0.49783,1.69016,0.57614,0.50598,0.0482,1.00523,0.067,1.51547,0.0723l8.1333-0.004c0.78449-0.0248,1.59591-0.0549,2.34497-0.32067,0.26539-0.12012,0.44149-0.23315,0.61299-0.4748,0.32492-0.58394,0.3359-1.34079,0.34724-1.99417l-0.007-5.76496c-0.0351-0.60839-0.0843-1.23237-0.41244-1.76386l11.0581-0.219c-0.1679-0.1467-0.3203-0.2385-0.5226-0.3313-0.8628-0.3129-1.8258-0.3267-2.7315-0.3373l-7.91327,0.004-0.76925,0.0386c-0.59315,0.0571-1.16468,0.12614-1.70575,0.38232-0.18035,0.10701-0.30543,0.20551-0.44185,0.35965-0.38763,0.5446-0.44822,1.2724-0.49925,1.91693l-0.0149,5.74192zm22.6003,0.52972c-0.007,0.89433-0.0599,1.76563-0.21366,2.64473-0.0546,0.27673-0.11728,0.54744-0.19098,0.81708l-0.19028,0.57119c-0.15626,0.36885-0.32173,0.69838-0.52582,1.04066l-0.45886,0.60945-0.54177,0.5354-0.63319,0.46417-0.71788,0.38906-0.80043,0.31606c-0.36886,0.11232-0.73488,0.21224-1.10799,0.29586-1.17957,0.23918-2.35843,0.33166-3.55748,0.36071l-0.6378,0.007-10.98-0.002c-1.03181-0.0177-2.0459-0.0819-3.06425-0.24095l-0.4872-0.0893c10.6374-0.1271,10.0656-0.2933,9.4848-0.5083l-0.77244-0.36-0.69803-0.43122-0.62185-0.50882-0.5361-0.57969-0.45142-0.64913-0.36461-0.71362c-0.10063-0.25548-0.19559-0.5067-0.27779-0.76961-0.20764-0.72638-0.31855-1.44886-0.37559-2.20358-0.0198-0.33059-0.0305-0.65977-0.0322-0.99319l0.001-6.74044c0.0163-0.77917,0.0702-1.5424,0.19559-2.31519,0.0684-0.37276,0.15094-0.73488,0.25654-1.10126l0.21047-0.60024c0.16901-0.38268,0.34724-0.72567,0.56693-1.0846l0.48685-0.63,0.57118-0.54674,0.65055-0.46134,0.72779-0.38196,0.79902-0.30473,0.86492-0.23279c1.45949-0.30189,2.93067-0.37949,4.41921-0.38658l11.0686,0.003c0.9613,0.0177,1.90878,0.0797,2.86441,0.21366,0.60271,0.0974,1.18488,0.22075,1.77236,0.39331l0.78803,0.29055,0.48827,0.24059,0.45744,0.2785,0.42697,0.31571,0.39295,0.35327,0.35787,0.38905,0.32209,0.42378,0.41421,0.70335c0.16548,0.35114,0.30118,0.69626,0.4213,1.06405,0.11658,0.40146,0.20835,0.79548,0.28382,1.20508,0.10878,0.6952,0.16335,1.37587,0.18425,2.07709l0.004,6.83539zm9.97973-7.90334v15.9541h-7.39701v-22.837h12.1039l7.72689,16.3315,7.72086-16.3315h12.1043v22.837h-7.397v-15.9537l-7.80874,15.9537h2.00009l-7.80909-15.9522zm42.5884,0.00035v15.9537h-7.397v-22.837h12.1039l7.72689,16.3315,7.72087-16.3315h12.1043v22.837h-7.39665v-15.9537l-7.80945,15.9537h-9.24343l-7.80945-15.9537zm41.018,15.9537h2.598l13.8341-22.837h9.50492l13.6995,22.7902v-22.7902h10.9194l14.4521,16.6213v-16.6213h7.39701v22.837h-11.1263l-14.2452-16.6022v16.6022h-16.0526l-3.12059-5.35712h-13.4663l-3.1493,5.35712zm9.96662-16.7386-3.51461,5.77878h6.89669l-3.38208-5.77878zm61.3421,10.9265,9.91878-0.001c0.84898-0.0142,1.70292-0.0563,2.53382-0.25831l0.2491-0.0726c0.47055-0.16689,0.85677-0.33945,1.1335-0.77492,0.14705-0.29693,0.2165-0.57579,0.27248-0.90426,0.0319-0.27425,0.0461-0.54283,0.0521-0.82063l-0.0177-5.9563-0.0436-0.35433-0.0702-0.31358-0.0932-0.2746-0.11516-0.23776-0.135-0.20728c-0.13712-0.15768-0.26645-0.29091-0.43795-0.41032-0.66898-0.40181-1.48854-0.50209-2.24929-0.57579-0.44894-0.0319-0.89185-0.0464-1.33973-0.051h-9.6594v11.2128zm-7.397-17.0249,19.8351,0.002c1.05095,0.0177,2.08276,0.0982,3.11776,0.29693,0.52157,0.10913,1.01728,0.25086,1.52362,0.4259l0.78165,0.3437,0.71115,0.41882,0.63637,0.49323,0.56197,0.57402,0.4826,0.64736,0.4011,0.71504c0.14457,0.32386,0.27674,0.64559,0.38977,0.98079,0.20905,0.67996,0.33732,1.35283,0.42094,2.05724,0.0528,0.52902,0.0804,1.05165,0.0918,1.57996l-0.004,5.99599c-0.0177,0.675-0.0702,1.33157-0.1676,1.99771-0.10205,0.59669-0.2374,1.16043-0.42945,1.73232-0.0988,0.2654-0.20515,0.51981-0.32208,0.77457l-0.25618,0.4741-0.29977,0.45177-0.33909,0.41953-0.3763,0.38551-0.41351,0.35114-0.44787,0.31535-0.48189,0.27957-0.77846,0.35256c-0.59174,0.21968-1.17319,0.37559-1.78902,0.50067-0.33732,0.0588-0.67287,0.10913-1.0102,0.15201-0.75508,0.0776-1.49882,0.11338-2.25531,0.11905h-19.5832v-22.837z"/>

 <path fill-rule="evenodd" fill="#FFF" d="M39.873,63.021h-10.8135c-2.26275,0-4.0298-0.22925-5.30716-0.68846-1.27737-0.46453-2.18764-1.23484-2.72977-2.31626-0.54248-1.08177-0.81673-2.5813-0.81673-4.49965v-6.03035c0.0294-2.07142,0.32669-3.65811,0.90425-4.76008,0.57154-1.10728,1.51654-1.8776,2.84032-2.31626,1.32378-0.44398,3.21378-0.66331,5.66929-0.66331h9.55346c2.07638,0,3.79701,0.2041,5.16154,0.60733,1.35921,0.40783,2.41476,1.14767,3.16134,2.21421,0.75224,1.06618,1.12571,2.55579,1.12571,4.46386h-6.02504c0-1.11225-0.33803-1.90311-1.02083-2.36729-0.68209-0.46417-1.8078-0.69378-3.38846-0.69378h-7.44804c-1.37657,0-2.3857,0.0819-3.02669,0.24485-0.64169,0.15803-1.08496,0.495-1.33016,1.00488-0.24484,0.50527-0.36744,1.32661-0.36744,2.45409v5.265c0,1.05626,0.15768,1.86733,0.47233,2.42363,0.30933,0.55594,0.79901,0.93366,1.4524,1.13244,0.65905,0.19878,1.58067,0.30118,2.76449,0.30118h7.4537c1.16114,0,2.05334-0.0819,2.67732-0.23988,0.62433-0.15839,1.07894-0.46453,1.36453-0.90815,0.2863-0.44894,0.43193-1.10693,0.43193-1.97433h6.02503c-0.0117,1.94881-0.25689,3.44338-0.72921,4.47944-0.47834,1.04067-1.33547,1.77556-2.57811,2.21422-1.24228,0.43334-3.06779,0.65267-5.47653,0.65267zm18.1913-7.74425c0.0113,0.93862,0.15166,1.65792,0.41989,2.16815,0.26858,0.51024,0.71752,0.8674,1.35921,1.0715,0.64134,0.20905,1.56898,0.3111,2.77583,0.3111h7.69322c1.2717,0,2.22201-0.10205,2.85804-0.30118,0.63531-0.19878,1.07326-0.54567,1.31811-1.05059,0.24448-0.49996,0.36708-1.24512,0.36708-2.2298v-5.42304c0-1.04067-0.14563-1.83189-0.43724-2.36728-0.29729-0.54071-0.76996-0.91346-1.41732-1.1172-0.65339-0.20906-1.58634-0.31146-2.7939-0.31146h-7.48878c-1.23059,0-2.16957,0.10736-2.8226,0.32669-0.65339,0.21437-1.11437,0.59173-1.3826,1.13244-0.26823,0.53575-0.41988,1.32662-0.44894,2.36729v5.42338zm22.6006,0.5152c0,1.37764-0.13996,2.51504-0.42555,3.41823-0.2863,0.90319-0.75826,1.63771-1.41732,2.19862-0.66508,0.56657-1.55728,0.98504-2.69468,1.24512-1.13138,0.26539-2.54871,0.39791-4.2463,0.39791h-10.6671c-1.62779,0-3.00968-0.13783-4.14142-0.4135-1.13137-0.27-2.05299-0.7037-2.77015-1.28552-0.71185-0.58677-1.23059-1.33122-1.55729-2.23972-0.32669-0.90779-0.48968-2.01508-0.48968-3.32114v-6.45378c0-1.47437,0.15732-2.69362,0.47764-3.6528,0.32102-0.95917,0.82877-1.72452,1.52255-2.29606,0.69414-0.57118,1.59804-0.97441,2.71205-1.21925,1.12004-0.24484,2.53134-0.36709,4.2463-0.36709h10.6671c2.09976,0,3.77929,0.21933,5.04531,0.65268,1.26,0.43866,2.19898,1.20402,2.81693,2.30102,0.61264,1.09701,0.92161,2.6224,0.92161,4.5815v6.45378zm42.2387-13.989h-10.8078l-8.04862,17.0245h-0.34973l-8.05464-17.0245h-10.8074v21.2489h5.80889v-17.0146h0.77032l8.32854,17.0146h8.25307l8.32819-17.0146h0.76996v17.0146h5.80925v-21.2489zm42.5884,0h-10.8078l-8.04862,17.0245h-0.34972l-8.05465-17.0245h-10.8074v21.2489h5.80925v-17.0146h0.76961l8.3289,17.0146h8.25271l8.32855-17.0146h0.76996v17.0146h5.80925v-21.2489zm9.0985,21.2489h-6.78331l12.8725-21.2489h8.60847l12.7729,21.2489h-6.82405l-3.12024-5.35677h-14.377l-3.14929,5.35677zm5.49425-9.37205h9.69343l-4.61941-7.89236h-0.2739l-4.80012,7.89236zm24.1459,9.37205v-21.2489h9.76358l14.8029,17.0245h0.80468v-17.0245h5.80925v21.2489h-9.96732l-14.5988-17.0146h-0.80504v17.0146h-5.80925zm41.3288-4.22433h10.4577c1.42867,0,2.52567-0.12224,3.28926-0.3724,0.76429-0.24484,1.28905-0.62256,1.575-1.13776,0.28559-0.51519,0.42555-1.21429,0.42555-2.1072v-5.57114c0-1.26532-0.37311-2.18339-1.12571-2.75493-0.74658-0.57118-2.13449-0.85712-4.1641-0.85712h-10.4577v12.8006zm-5.8089-17.0245h18.7512c1.51051,0,2.80524,0.1428,3.8785,0.42839,1.07894,0.28559,1.96583,0.73949,2.65359,1.35212,0.69449,0.61725,1.20756,1.41308,1.54559,2.38252,0.34441,0.9691,0.51945,2.16815,0.53681,3.58654v5.62748c0,1.85669-0.28028,3.35693-0.83976,4.50992-0.5602,1.15795-1.46977,2.0048-2.72977,2.54551-1.26,0.54603-2.92783,0.81638-5.01023,0.81638h-18.7859v-21.2489z"/>

 <path fill-rule="evenodd" fill="#033" d="m18.709,110.788h7.0278v1.64692h-2.70673v5.2441h-1.63311v-5.2441h-2.688v-1.647zm23.7653,6.89102h-1.63311v-6.891h1.63311v6.89102zm17.105-5.2441v0.84296l3.3548-0.002c0.13642-0.0106,0.28134-0.0177,0.40713-0.0801,0.0574-0.0383,0.0616-0.16512,0.068-0.22358,0.005-0.14386,0.0163-0.37595-0.12508-0.46063-0.1513-0.068-0.31535-0.0723-0.47587-0.0762h-3.22901zm5.24799,1.72311,0.11091,0.16902c0.17893,0.31394,0.24767,0.60874,0.27177,0.97016,0.007,0.28027-0.0131,0.54142-0.0624,0.81886-0.0397,0.15874-0.0857,0.30259-0.14918,0.45531-0.0733,0.14244-0.14882,0.26327-0.24661,0.39154-0.10736,0.11799-0.20977,0.21189-0.33732,0.30826-0.1343,0.085-0.25937,0.15024-0.405,0.21119-0.19949,0.068-0.38871,0.1148-0.59563,0.15059-0.22607,0.0283-0.44788,0.0429-0.6743,0.0461h-4.79338v-6.89102l4.91173,0.007,0.49429,0.0539,0.44858,0.11409,0.20693,0.0829,0.19347,0.1024,0.18035,0.12366,0.16051,0.14421,0.14032,0.16193,0.11799,0.17929,0.095,0.19311,0.0712,0.2041,0.0493,0.21153c0.0276,0.21012,0.039,0.405,0.0337,0.61902-0.0266,0.36709-0.0897,0.74835-0.32386,1.04776l0.10169,0.12578zm-5.24799,0.76642v1.10799l3.48874-0.003c0.13854-0.0142,0.30827-0.0319,0.41031-0.13997,0.13111-0.18425,0.13217-0.58181,0.0432-0.78165-0.10807-0.17716-0.4422-0.17823-0.6176-0.18319h-3.32468zm20.6256,2.75457v-6.891h5.96622v1.64692h-4.33311v0.87485h4.22008v1.64693h-4.22008v1.07574h4.33311v1.64658h-5.9662zm22.7282-5.23595v1.19481l3.16346-0.004c0.17291-0.0177,0.34477-0.0439,0.44823-0.19913,0.0893-0.18142,0.10772-0.40181,0.0971-0.59953-0.0464-0.32102-0.3391-0.38303-0.61654-0.3926h-3.09224zm5.31106,0.11445c0.0638,0.47764,0.0468,0.95634-0.14917,1.40528-0.0758,0.16051-0.16193,0.30047-0.27744,0.43547,0.29622,0.40252,0.36318,0.89469,0.37311,1.38331v1.89744h-1.63276l-0.003-2.0576c-0.007-0.09-0.0135-0.20728-0.0588-0.28488-0.0772-0.0514-0.20055-0.0493-0.2863-0.0521h-3.27649v2.40307h-1.63311v-6.89102l4.70657,0.004c0.23634,0.0142,0.45709,0.0432,0.69024,0.0946,0.16051,0.045,0.30543,0.0967,0.46027,0.16405,0.13748,0.0737,0.26008,0.14953,0.3887,0.24343,0.11729,0.10134,0.21473,0.19984,0.31607,0.32102,0.0875,0.12544,0.15661,0.24343,0.22287,0.3841,0.0726,0.18283,0.1226,0.35362,0.15945,0.54992zm17.0302,5.1215h-1.63311v-6.89h1.63311v6.89102zm15.4559-6.89102h1.63311l0.002,4.67539c0.007,0.1226,0.0142,0.30756,0.11552,0.39968,0.18389,0.13996,0.49606,0.15378,0.71822,0.16583l2.54552,0.004c0.23173-0.007,0.60236-0.0213,0.76925-0.21437,0.0942-0.13535,0.10382-0.31535,0.10736-0.47267v-4.5574h1.63311l-0.004,4.55988c-0.0142,0.26149-0.0408,0.50882-0.0932,0.76783-0.0454,0.17079-0.0978,0.32528-0.16866,0.48898-0.0801,0.14775-0.16193,0.27354-0.26646,0.40571-0.11658,0.12189-0.22606,0.21578-0.36354,0.31252-0.14386,0.0815-0.27567,0.14102-0.42981,0.19523-0.15555,0.0447-0.30649,0.0783-0.46382,0.10595-0.23917,0.0319-0.47267,0.0485-0.71149,0.0549l-2.63729-0.007c-0.29941-0.0177-0.58003-0.0535-0.87059-0.12118-0.15909-0.0464-0.30259-0.0985-0.45141-0.16583-0.14989-0.084-0.27071-0.16724-0.4004-0.27637-0.12189-0.1226-0.21437-0.23705-0.30968-0.37666-0.085-0.15413-0.14847-0.29622-0.20622-0.45886-0.0496-0.17787-0.0847-0.34759-0.11268-0.52724-0.0213-0.19984-0.0319-0.39508-0.0354-0.59315v-4.36642zm27.5404,6.89102h-0.91914l-2.4711-4.4387v4.4387h-1.63169v-6.89h2.06574l2.49874,4.42594,2.48563-4.42594h2.06823v6.89102h-1.63346v-4.42453l-2.46295,4.42453zm32.5701-6.89102-2.67767,6.89102h-1.54453l-1.54488-4.16197-1.53213,4.16197h-1.54559l-2.67768-6.89102h1.77697l1.65827,4.39901,1.63027-4.39901h1.39146l1.62957,4.39759,1.65791-4.39759h1.77803zm15.6058,6.89102h-1.81807l3.39413-6.89102h1.53603l3.39413,6.89102h-1.85244l-0.70866-1.46055h-3.23362l-0.7115,1.46055zm1.54063-3.10713h1.59165l-0.79511-1.62779-0.79654,1.62779zm20.9689-2.12882v1.19481l3.16346-0.004c0.17291-0.0177,0.34406-0.0439,0.44752-0.19913,0.0893-0.18177,0.10807-0.40146,0.0974-0.59953-0.0461-0.32102-0.33874-0.38303-0.61653-0.3926h-3.09189zm5.3107,0.11445c0.0872,0.65374,0.0177,1.32307-0.42625,1.84075,0.29586,0.40358,0.36283,0.89398,0.37311,1.38331v1.89744h-1.63311l-0.003-2.0576c-0.007-0.0946-0.0142-0.19063-0.0535-0.27602-0.0354-0.0581-0.23988-0.0595-0.29161-0.061h-3.27614v2.40307h-1.63311v-6.89102l4.70622,0.004c0.23634,0.0142,0.45744,0.0432,0.69059,0.0946,0.16015,0.045,0.30508,0.0967,0.46027,0.16405,0.13713,0.0737,0.26008,0.14953,0.38835,0.24343,0.11764,0.10134,0.21472,0.19984,0.31606,0.32102,0.0875,0.12544,0.15697,0.24343,0.22288,0.3841,0.073,0.18283,0.12259,0.35362,0.15944,0.54992zm15.3369-0.91169c0.0875-0.12508,0.17326-0.22713,0.28098-0.33484,0.11799-0.0978,0.22819-0.17398,0.36177-0.25016,0.18496-0.0875,0.35646-0.14563,0.55665-0.19453,0.27036-0.0521,0.52831-0.0733,0.8054-0.0783l3.05362,0.007,0.48154,0.0613,0.22641,0.0553,0.21544,0.0748,0.20409,0.0932,0.19063,0.11303,0.17752,0.13429,0.15945,0.15626,0.13819,0.17433,0.11586,0.19099,0.0925,0.20374,0.0695,0.21578,0.0482,0.22359,0.0283,0.23244,0.0283,0.77031h-1.272c0.26858,0.0829,0.49464,0.21366,0.71397,0.3926,0.11056,0.10736,0.19843,0.20977,0.28985,0.33732,0.0751,0.13288,0.13358,0.25725,0.18673,0.40288l0.0716,0.29126c0.0461,0.31925,0.0432,0.61476,0.0142,0.93756-0.0213,0.15484-0.0489,0.30295-0.0868,0.45602-0.0595,0.19524-0.12792,0.35752-0.22996,0.53539-0.0872,0.12437-0.17186,0.22465-0.28028,0.3313-0.11764,0.0967-0.2289,0.17185-0.36142,0.24556-0.13677,0.0609-0.2661,0.10842-0.4089,0.14988-0.32066,0.074-0.62503,0.0996-0.95173,0.10452l-3.02208-0.003-0.30898-0.0284c-0.30862-0.051-0.56303-0.12826-0.84189-0.26468-0.13287-0.0787-0.2452-0.15732-0.36142-0.25406-0.1109-0.107-0.20019-0.20941-0.29055-0.33059l-0.14846-0.25653c-0.10843-0.24945-0.16689-0.47055-0.20268-0.73666l-0.0283-0.84968h1.62319l0.0283,0.63248c0.0283,0.19772,0.0627,0.27035,0.24697,0.35398,0.20303,0.0758,0.42236,0.0861,0.63956,0.0893l2.74323-0.004c0.17469-0.0142,0.36213-0.0283,0.51024-0.13606,0.16334-0.15059,0.14705-0.55346,0.0737-0.74799-0.0284-0.0581-0.0723-0.0755-0.12791-0.0985-0.20445-0.0648-0.42024-0.0698-0.63036-0.073l-2.92606-0.001c-0.30791-0.0106-0.59917-0.0376-0.89681-0.10949-0.225-0.0624-0.41776-0.14067-0.61477-0.26291-0.18319-0.13146-0.31252-0.2654-0.43618-0.45036-0.0546-0.0942-0.0971-0.18248-0.13677-0.27992-0.19063-0.58393-0.17681-1.24547,0.00036-1.82728,0.0539-0.14244,0.11232-0.26539,0.18779-0.3965zm5.60232,1.75925c-0.0106-0.22394,0.007-0.48508-0.0687-0.6998-0.0213-0.05-0.0379-0.0765-0.0758-0.1102-0.20728-0.15236-0.53716-0.15661-0.77882-0.16016l-2.7659,0.002c-0.15981,0.007-0.38693,0.0106-0.52264,0.10771-0.062,0.0503-0.0687,0.20835-0.0755,0.28134-0.007,0.11658-0.0177,0.27673,0.0283,0.38976,0.0319,0.0177,0.0687,0.0319,0.10736,0.0443,0.24378,0.0606,0.50032,0.0652,0.75331,0.067l2.66386,0.003c0.24449,0.0106,0.49217,0.0248,0.73488,0.0751z"/>

 <path fill-rule="evenodd" fill="#FFF" d="m19.239,111.319h5.96906v0.58854h-2.70673v5.24445h-0.57437v-5.24445h-2.688v-0.589zm22.7066,5.83299h-0.57437v-5.833h0.57437v5.83299zm17.1053-5.24445v1.9017h3.76512c0.39508,0,0.68209-0.0659,0.85925-0.19736,0.17823-0.13182,0.26717-0.37418,0.26717-0.72851,0-0.33059-0.0865-0.57543-0.26043-0.73523-0.17327-0.16087-0.4617-0.2406-0.86599-0.2406h-3.7651zm-0.57472,5.24445v-5.833h4.11626c0.66012,0,1.14661,0.12366,1.46197,0.37134,0.31358,0.24661,0.47055,0.62185,0.47055,1.12465,0,0.40039-0.0702,0.6959-0.21118,0.88795-0.14103,0.19027-0.30225,0.31642-0.48437,0.37523,0.0996,0.0213,0.21401,0.0783,0.34334,0.16512,0.12756,0.0868,0.24591,0.22961,0.35221,0.42839,0.10665,0.19913,0.1598,0.4539,0.1598,0.76606,0,0.42166-0.0719,0.75898-0.21685,1.01126-0.14492,0.25335-0.36035,0.43264-0.6463,0.54036-0.28594,0.10807-0.64772,0.16263-1.08531,0.16263h-4.26012zm0.57472-2.75492v2.16638h3.91004c0.38445,0,0.67146-0.0879,0.86315-0.26575,0.19028-0.17787,0.28595-0.46523,0.28595-0.85996,0-0.37382-0.10099-0.63992-0.30189-0.80114-0.20055-0.15945-0.50032-0.23953-0.89646-0.23953h-3.8607zm21.684,2.75492v-5.833h4.90783v0.58854h-4.33346v1.93359h4.22043v0.58819h-4.22043v2.13413h4.33346v0.58854h-4.9078zm21.6698-5.2363v2.25355h3.58937c0.38445,0,0.67854-0.0985,0.87945-0.29587,0.20055-0.19736,0.30154-0.52476,0.30154-0.98291,0-0.28418-0.10347-0.51803-0.30969-0.70016-0.20622-0.18354-0.4826-0.27461-0.82984-0.27461h-3.63083zm0,2.84138v2.40307h-0.57472v-5.83263h3.99011c0.44965,0,0.81922,0.0702,1.10658,0.21011,0.28736,0.14032,0.49748,0.33626,0.62752,0.58678,0.13039,0.25086,0.19559,0.54354,0.19559,0.87661,0,0.27602-0.0358,0.50138-0.10736,0.67925-0.0719,0.17788-0.16264,0.31784-0.26858,0.41988-0.10666,0.1024-0.24095,0.20339-0.40465,0.30437,0.19559,0.0457,0.36035,0.18461,0.49358,0.41847,0.13288,0.23386,0.19949,0.55594,0.19949,0.96626v1.36275h-0.57472v-1.42866c0-0.35716-0.0691-0.60768-0.20622-0.75047-0.13819-0.14421-0.35894-0.21579-0.66225-0.21579h-3.81437zm22.3409,2.39492h-0.57437v-5.833h0.57437v5.83299zm16.5146-5.83299h0.57473v4.06807c0,0.27319,0.0422,0.49323,0.12862,0.6626,0.0868,0.16972,0.23846,0.29551,0.45248,0.37949,0.21543,0.084,0.51626,0.12898,0.90319,0.13429h2.43389c0.33626-0.004,0.60768-0.0531,0.81249-0.14421,0.20622-0.0893,0.35503-0.22252,0.44681-0.39898,0.0918-0.17504,0.13854-0.39791,0.13854-0.66649v-4.035h0.57437v3.81614c0,0.53646-0.0705,0.94961-0.2126,1.23945-0.14244,0.29126-0.35362,0.49146-0.63461,0.60236-0.28063,0.10914-0.65834,0.16796-1.13173,0.17504h-2.42575c-0.4911-0.007-0.88334-0.0701-1.17992-0.18779-0.29551-0.11906-0.51732-0.32209-0.66224-0.61051-0.14528-0.28843-0.21827-0.68918-0.21827-1.20189v-3.8328zm30.578,0h-1.22882l-2.79425,4.97551-2.80949-4.97551h-1.2274v5.83299h0.57331v-5.36102h0.32705l2.98488,5.36102h0.29657l2.98418-5.36102h0.31925v5.36102h0.57472v-5.833zm22.9146,0-1.9311,5.21079h-0.12756l-1.96441-5.21079h-0.63744l2.2663,5.83299h0.81425l1.89921-5.15941,1.91516,5.15941h0.81425l2.2663-5.83299h-0.6385l-1.96441,5.21079h-0.1265l-1.9311-5.21079h-0.65445zm21.3633,5.83299h-0.63674l2.87292-5.83299h0.87767l2.87256,5.83299h-0.67004l-0.70901-1.46055h-3.89551l-0.71185,1.46055zm1.0233-2.04909h3.28748l-1.64232-3.36225-1.64516,3.36225zm21.2878-3.18721v2.25355h3.58972c0.38445,0,0.67819-0.0985,0.8791-0.29587,0.20055-0.19736,0.30188-0.52476,0.30188-0.98291,0-0.28418-0.10381-0.51803-0.31003-0.70016-0.20622-0.18354-0.48296-0.27461-0.82985-0.27461h-3.63082zm0,2.84138v2.40307h-0.57473v-5.83263h3.99012c0.44965,0,0.81921,0.0702,1.10657,0.21011,0.28737,0.14032,0.49749,0.33626,0.62752,0.58678,0.13075,0.25086,0.19559,0.54354,0.19559,0.87661,0,0.27602-0.0358,0.50138-0.10736,0.67925-0.0719,0.17788-0.16263,0.31784-0.26893,0.41988-0.1063,0.1024-0.24059,0.20339-0.4043,0.30437,0.1956,0.0457,0.36036,0.18461,0.49359,0.41847,0.13287,0.23386,0.19949,0.55594,0.19949,0.96626v1.36275h-0.57437v-1.42866c0-0.35716-0.0695-0.60768-0.20623-0.75047-0.13889-0.14421-0.35929-0.21579-0.66259-0.21579h-3.81437zm21.3835-1.78972c0-0.39047,0.0638-0.70583,0.19028-0.94784,0.12614-0.24236,0.32173-0.42023,0.58641-0.5322,0.26362-0.11197,0.60662-0.16831,1.02685-0.16831h2.79142c0.61866,0,1.08709,0.13748,1.40634,0.41209,0.3189,0.27425,0.47693,0.68598,0.47693,1.23626h-0.57437c-0.004-0.22961-0.0532-0.4213-0.14209-0.57685-0.0893-0.15662-0.23846-0.27567-0.44858-0.35823-0.21012-0.0829-0.48933-0.12473-0.83622-0.12473h-2.66528c-0.33413,0-0.59067,0.0379-0.77031,0.11481-0.17965,0.0769-0.30331,0.19027-0.36851,0.34157s-0.0981,0.35292-0.0981,0.60343c0,0.22535,0.0358,0.40216,0.10878,0.52653,0.073,0.12614,0.21154,0.21863,0.41634,0.27744,0.20622,0.0574,0.50386,0.0868,0.89504,0.0868h2.47394c0.48153,0,0.87378,0.0531,1.17709,0.15838,0.30188,0.1063,0.52405,0.27177,0.66755,0.49571,0.14245,0.22394,0.21437,0.51661,0.21437,0.87661v0.11622c-0.0142,0.4089-0.0854,0.73382-0.21011,0.97335-0.12508,0.23953-0.31642,0.41138-0.57579,0.51661-0.25937,0.10489-0.60414,0.15697-1.03394,0.15697h-2.85803c-0.37098,0-0.6913-0.0616-0.96024-0.18354-0.27-0.12189-0.47763-0.30791-0.62255-0.55736-0.14599-0.25087-0.21792-0.55736-0.21792-0.92303h0.57437c0.004,0.23137,0.0521,0.4259,0.13855,0.58287,0.0865,0.1552,0.23527,0.27709,0.44433,0.3639,0.21011,0.0854,0.48933,0.12862,0.83657,0.12862h2.61567c0.43902,0,0.765-0.085,0.97654-0.25724,0.21153-0.17115,0.31783-0.44433,0.31783-0.81815,0-0.25477-0.0397-0.4578-0.11835-0.60626-0.0783-0.14989-0.21295-0.25902-0.40571-0.33059-0.19275-0.0698-0.46133-0.10489-0.80858-0.10489h-2.78504c-0.36425,0-0.66649-0.0319-0.90956-0.0939-0.24237-0.0631-0.42981-0.1552-0.5641-0.27744-0.13287-0.12154-0.22748-0.27284-0.28098-0.45213-0.0546-0.17929-0.0808-0.39791-0.0808-0.65551z"/>

 <path fill-rule="evenodd" fill="#033" d="m37.725,107.524-11.2443-0.002c-0.90425-0.0177-1.79716-0.0677-2.69716-0.1761-0.64488-0.0896-1.26815-0.20799-1.89921-0.37949-0.36957-0.11197-0.71398-0.24342-1.07433-0.39012l-0.48898-0.24838-0.45496-0.28488-0.41882-0.32173-0.38268-0.35823-0.34228-0.39402-0.30189-0.42768-0.37134-0.69696c-0.1839-0.43512-0.32598-0.86422-0.44539-1.32414-0.14138-0.62185-0.23032-1.23342-0.28843-1.87051-0.0322-0.47303-0.0493-0.94394-0.0535-1.42051l0.008-6.44032c0.0152-0.37523,0.0372-0.75047,0.067-1.12677,0.0872-0.87661,0.22748-1.71106,0.48721-2.55579,0.12578-0.36389,0.26504-0.70192,0.43582-1.04704l0.2654-0.45674,0.31464-0.43405,0.35717-0.39756,0.39791-0.36,0.43583-0.32031,0.47267-0.28099,0.50634-0.2413,0.81815-0.29019c0.75969-0.21367,1.50981-0.34583,2.28969-0.4454,0.96378-0.1024,1.92047-0.15094,2.88779-0.16795l10.0201-0.003c0.98646,0.007,1.9552,0.0507,2.93776,0.15839,0.73417,0.0928,1.44708,0.21969,2.16602,0.40252,0.37701,0.10559,0.73559,0.22748,1.09949,0.37488,0.43299,0.19488,0.82523,0.41138,1.22138,0.675,0.22252,0.16441,0.43228,0.33236,0.64098,0.5152,0.33945,0.32527,0.62717,0.65586,0.90532,1.03429,0.16228,0.24449,0.30578,0.48685,0.4422,0.74551,0.22252,0.47162,0.3848,0.93083,0.52158,1.43185,0.10027,0.43477,0.17362,0.86138,0.22996,1.30217,0.0705,0.74905,0.0758,1.48216,0.0857,2.23334h-7.5923l-0.0454-1.1294-0.0985-0.5552-0.1736-0.4061c-0.1389-0.1984-0.2704-0.3401-0.4769-0.4698-0.764-0.4202-1.7232-0.473-2.5771-0.4978l-7.72122-0.003c-0.83197,0.004-1.67138,0.0213-2.49732,0.1513-0.39224,0.0698-0.74339,0.15236-1.02402,0.45709-0.25972,0.36106-0.31039,0.81637-0.36389,1.24511-0.0287,0.3554-0.0425,0.70619-0.0471,1.06158l0.007,5.61295,0.0524,0.62433c0.0627,0.38374,0.13748,0.7115,0.31252,1.05733l0.17681,0.25689c0.24768,0.26255,0.47941,0.38834,0.81674,0.50527,0.83232,0.22642,1.67882,0.25795,2.53417,0.26646l7.85728-0.004c0.7526-0.0213,1.51512-0.0493,2.24221-0.26149,0.27035-0.10276,0.46063-0.20693,0.65622-0.42591,0.28559-0.39756,0.33449-0.87945,0.36709-1.35815l0.0244-1.07326h7.60642l-0.0276,1.53425c-0.0461,0.96378-0.14173,1.88893-0.36106,2.82649-0.11551,0.43654-0.25122,0.84083-0.42839,1.25398l-0.23173,0.44114-0.28063,0.41917-0.32456,0.38552-0.36497,0.3483-0.40464,0.31288-0.44114,0.2746-0.47516,0.23811-0.7774,0.29056c-1.77555,0.51696-3.63331,0.59952-5.4698,0.60909zm103.797,0.0319c-1.13598-0.007-2.25177-0.0673-3.37323-0.24272l-0.48756-0.0893c-0.60661-0.12862-1.1785-0.2948-1.75925-0.51023l-0.77279-0.35965-0.69768-0.43158-0.62185-0.50846-0.5361-0.58004-0.45142-0.64878-0.36496-0.71362-0.21579-0.57189c-0.24767-0.79087-0.37523-1.57535-0.43724-2.4013-0.0213-0.33059-0.0319-0.66012-0.0319-0.99354l0.001-6.74008c0.0177-0.77953,0.0702-1.54276,0.19559-2.31555,0.0684-0.3724,0.15094-0.73488,0.25653-1.10126l0.21047-0.60024c0.16867-0.38197,0.34689-0.72602,0.56693-1.0846l0.48685-0.62965,0.57083-0.54673,0.65091-0.4617,0.72779-0.38196,0.79866-0.30473,0.86528-0.23244c1.45913-0.30224,2.93031-0.37949,4.41921-0.38693l11.0682,0.003c0.96165,0.0177,1.90913,0.0794,2.86476,0.21331,0.60272,0.0974,1.18488,0.22075,1.77236,0.3933l0.78804,0.29056,0.48826,0.24059,0.45744,0.27885,0.42697,0.31571,0.39296,0.35327,0.35752,0.38906,0.32208,0.42342,0.41421,0.7037c0.16548,0.35079,0.30119,0.69626,0.42166,1.0637,0.11657,0.40146,0.20834,0.79548,0.28382,1.20508,0.10878,0.6952,0.16334,1.37587,0.18425,2.07709l0.004,6.83539c-0.007,0.89398-0.0602,1.76599-0.21401,2.64508-0.0546,0.27673-0.11729,0.54709-0.19063,0.81673l-0.19063,0.57118c-0.15626,0.36886-0.32174,0.69839-0.52583,1.04067l-0.45886,0.60945-0.54177,0.5354-0.63319,0.46417-0.71787,0.38905-0.80044,0.31642c-0.3972,0.12118-0.79015,0.225-1.19338,0.31358-0.56197,0.10772-1.11791,0.18744-1.68378,0.24449l1.30181,10.508-8.37815-10.4035h-6.02043zm-68.6661-8.58c0.0191,0.65551,0.056,1.34787,0.3972,1.92437l0.16228,0.19594c0.47162,0.41386,1.08603,0.49784,1.69016,0.57615,0.50598,0.0482,1.00524,0.067,1.51547,0.0723l8.13331-0.004c0.78449-0.0248,1.59591-0.0549,2.34496-0.32067,0.26539-0.12012,0.4415-0.23315,0.61299-0.47481,0.32492-0.58358,0.33626-1.34043,0.34725-1.99417l-0.006-5.76496c-0.0351-0.60803-0.0847-1.23236-0.4128-1.76386l-0.18637-0.22075c-0.1676-0.14704-0.31996-0.23881-0.52229-0.33165-0.86208-0.31287-1.82622-0.32669-2.73153-0.33732l-7.91292,0.004-0.76925,0.0386c-0.59279,0.0571-1.16468,0.1265-1.7061,0.38268-0.18,0.10665-0.30473,0.2048-0.4415,0.35894-0.38728,0.54425-0.44858,1.27346-0.4996,1.91728l-0.0149,5.74158zm22.6003,0.53008c-0.007,0.89433-0.0599,1.76598-0.21366,2.64508-0.0546,0.27673-0.11728,0.54708-0.19099,0.81673l-0.19027,0.57118c-0.15626,0.36886-0.32209,0.69839-0.52583,1.04067l-0.45886,0.60945-0.54177,0.53539-0.63319,0.46418-0.71787,0.38905-0.80043,0.31642c-0.36886,0.11197-0.73489,0.21189-1.108,0.29551-1.17956,0.23917-2.35842,0.33165-3.55748,0.36106l-0.63779,0.007-10.98-0.002c-1.03181-0.0177-2.04484-0.0815-3.0639-0.24095l-0.48756-0.0893c-0.60661-0.12862-1.17815-0.2948-1.75925-0.51023l-0.77279-0.35965-0.69804-0.43158-0.62185-0.50846-0.5361-0.58004-0.45142-0.64913-0.3646-0.71327c-0.10063-0.25583-0.19559-0.50705-0.2778-0.76961-0.20764-0.72673-0.31854-1.44886-0.37559-2.20358-0.0198-0.33059-0.0305-0.66012-0.0322-0.99354l0.001-6.74008c0.0163-0.77953,0.0702-1.54276,0.1956-2.31555,0.0684-0.37276,0.15129-0.73453,0.25689-1.10126l0.21047-0.60024c0.16866-0.38197,0.34689-0.72567,0.56657-1.0846l0.48685-0.62965,0.57118-0.54673,0.65126-0.46205,0.72744-0.38161,0.79867-0.30473,0.86492-0.23244c1.45949-0.30224,2.93067-0.37949,4.41921-0.38693l11.0686,0.003c0.9613,0.0177,1.90878,0.0794,2.86441,0.21331,0.60272,0.0974,1.18488,0.22075,1.77272,0.3933l0.78803,0.29056,0.48791,0.24059,0.4578,0.27885,0.42697,0.31571,0.39295,0.35327,0.35752,0.38906,0.32209,0.42342,0.41421,0.7037c0.16547,0.35079,0.30118,0.69626,0.4213,1.0637,0.11657,0.40146,0.20834,0.79548,0.28382,1.20508,0.10878,0.6952,0.16334,1.37587,0.18425,2.07709l0.004,6.83539zm32.6824-14.7862h7.39701v22.837h-11.1263l-14.2452-16.6025v16.6025h-7.39665v-22.837h10.919l14.4521,16.6213v-16.6213zm22.2739,14.2561c0.0177,0.65551,0.056,1.34787,0.3972,1.92437l0.16229,0.19594c0.47161,0.41386,1.08602,0.49784,1.69015,0.57615,0.50599,0.0482,1.00524,0.067,1.51583,0.0723l8.13295-0.004c0.78449-0.0248,1.59591-0.0549,2.34496-0.32067,0.2654-0.12012,0.4415-0.23315,0.61299-0.47481,0.32493-0.58358,0.33626-1.34043,0.34725-1.99417l-0.007-5.76496c-0.0354-0.60803-0.0847-1.23236-0.41279-1.76386l-0.18603-0.22075c-0.16795-0.14704-0.31996-0.23881-0.52263-0.33165-0.86209-0.31287-1.82622-0.32669-2.73154-0.33732l-7.91291,0.004-0.76925,0.0386c-0.5928,0.0571-1.16469,0.1265-1.70611,0.38268-0.18,0.10665-0.30472,0.2048-0.44114,0.35894-0.38764,0.54425-0.44894,1.27346-0.49996,1.91728l-0.0142,5.74158zm29.2528-14.2561h7.39665l0.004,14.231c0.0354,0.7604,0.13642,1.60087,0.74161,2.12988,0.73595,0.55453,1.77732,0.63036,2.66705,0.66119l8.28071,0.003,0.65586-0.0213c0.61902-0.0535,1.21784-0.13535,1.77166-0.43831l0.25582-0.1885c0.26717-0.26079,0.40855-0.5152,0.54355-0.86528,0.0684-0.22677,0.11693-0.44326,0.15697-0.6796,0.0354-0.29481,0.0507-0.58004,0.0567-0.87874v-13.9536h7.39701l-0.002,14.754c-0.0177,0.8426-0.0829,1.6611-0.23882,2.48705-0.0609,0.29161-0.13145,0.57437-0.21401,0.85819l-0.20977,0.59598c-0.16795,0.38268-0.34547,0.72638-0.56019,1.08106l-0.47941,0.63248-0.56197,0.55418-0.64099,0.47693-0.71752,0.39933-0.78909,0.32421c-0.35965,0.11587-0.71575,0.22039-1.08106,0.30508-0.74587,0.15874-1.48748,0.25299-2.24504,0.31075-0.57827,0.0383-1.15441,0.056-1.73126,0.0577l-11.2592-0.007c-0.55488-0.0213-1.1009-0.0581-1.65082-0.11339-0.50776-0.067-0.99957-0.14953-1.49847-0.25299l-0.91346-0.24981c-0.42945-0.14846-0.83268-0.30968-1.24406-0.50031l-0.74161-0.42095-0.66791-0.49358-0.59032-0.56764-0.51023-0.6385-0.4291-0.70476-0.34795-0.76819-0.26752-0.82666-0.18815-0.88334c-0.067-0.47693-0.11197-0.94536-0.1389-1.42831l-0.007-14.9811zm36.9932,22.837v-22.837h26.3994v5.60303h-19.0024v3.06496h18.4014v5.29193h-18.4014v3.27402h19.0024v5.60303h-26.3994zm41.1658-17.0249v4.90713l11.7439-0.0106,0.66756-0.0801c0.2452-0.0595,0.44823-0.12082,0.6789-0.23138l0.25653-0.19133c0.18107-0.21579,0.26894-0.40961,0.3639-0.67713l0.11835-0.56268,0.05-0.70866c-0.0177-0.68279-0.0521-1.54205-0.60343-2.03138-0.18354-0.11941-0.34441-0.18531-0.55133-0.25618l-0.59847-0.11516-0.78732-0.0425h-11.3386zm13.4897,11.2358c-0.66402-0.35646-1.43717-0.44149-2.17559-0.49287-0.27921-0.0142-0.55984-0.0213-0.83764-0.0248h-10.4421v6.30567h-7.43138v-22.837l19.4963,0.002c0.95846,0.0142,1.90382,0.0794,2.85307,0.23173,0.495,0.0865,0.96909,0.19807,1.45417,0.3398l0.77102,0.28807c0.36993,0.17221,0.71292,0.35398,1.06335,0.56587l0.65091,0.4787,0.58322,0.57295,0.50563,0.65977,0.42591,0.74197,0.26787,0.60909c0.29091,0.78591,0.44823,1.5626,0.53717,2.39244,0.0829,0.93827,0.0918,1.86024-0.0376,2.79319-0.0751,0.43405-0.17469,0.83693-0.31783,1.25114-0.12331,0.31146-0.25796,0.59244-0.42378,0.88016-0.45,0.6952-1.02863,1.29579-1.68308,1.7961,0.33378,0.12543,0.66331,0.25725,0.98363,0.41776,0.29303,0.1722,0.53716,0.35291,0.79051,0.58039,0.18815,0.18921,0.35468,0.37984,0.52086,0.58854l0.30969,0.52512,0.21508,0.58961,0.12295,0.64098,0.0393,0.67855v5.21326h-7.43208l-0.0142-4.40362-0.0996-0.51378-0.17823-0.38586c-0.15237-0.20481-0.29906-0.35008-0.51733-0.48579z"/>

 <path fill-rule="evenodd" fill="#FFF" d="M37.723,106.731h-10.8135c-2.26276,0-4.02981-0.22961-5.30717-0.68882-1.27736-0.46417-2.18764-1.23484-2.72976-2.31626-0.54213-1.08142-0.81674-2.5813-0.81674-4.49965v-6.03035c0.0294-2.07142,0.3267-3.65811,0.90426-4.76008,0.57153-1.10693,1.51653-1.87724,2.84031-2.31626,1.32378-0.44362,3.21378-0.66295,5.66929-0.66295h9.55382c2.07602,0,3.79665,0.20409,5.16154,0.60697,1.35885,0.40819,2.41441,1.14767,3.16098,2.21421,0.75224,1.06618,1.12571,2.55579,1.12571,4.46386h-6.025c0-1.11225-0.33803-1.90276-1.02047-2.36693s-1.80815-0.69413-3.38847-0.69413h-7.44838c-1.37658,0-2.38536,0.0819-3.0267,0.24519-0.64169,0.15803-1.08496,0.49465-1.33015,1.00488-0.24485,0.50493-0.36744,1.32662-0.36744,2.45374v5.265c0,1.05626,0.15767,1.86733,0.47267,2.42363,0.30898,0.5563,0.79866,0.93366,1.45205,1.13244,0.65906,0.19913,1.58067,0.30118,2.76449,0.30118h7.45405c1.16079,0,2.053-0.0818,2.67697-0.23988,0.62433-0.15804,1.07894-0.46418,1.36488-0.90815,0.28595-0.44859,0.43193-1.10693,0.43193-1.97398h6.02469c-0.0117,1.94882-0.25689,3.44339-0.72922,4.47909-0.47799,1.04103-1.33547,1.77556-2.57811,2.21422-1.24228,0.4337-3.06779,0.65303-5.47653,0.65303zm117.067,8.55815-1.06122-8.56772c1.03429-0.0574,1.93854-0.17716,2.70957-0.35787,1.13704-0.26008,2.0296-0.67855,2.69433-1.24477,0.65905-0.56126,1.13138-1.29578,1.41732-2.19897,0.28595-0.90284,0.42591-2.04059,0.42591-3.41823v-6.45378c0-1.95909-0.30933-3.48449-0.92197-4.58114-0.61796-1.09701-1.55693-1.86236-2.81658-2.30102-1.26602-0.43371-2.94555-0.65304-5.04531-0.65304h-10.6675c-1.71461,0-3.12626,0.12225-4.2463,0.36744-1.11366,0.24485-2.01791,0.64772-2.71169,1.21926-0.69414,0.57118-1.20154,1.33653-1.52256,2.29571-0.32067,0.95917-0.478,2.17842-0.478,3.65279v6.45378c0,1.30606,0.163,2.41335,0.48969,3.3215s0.84579,1.65295,1.55728,2.23937c0.71717,0.58181,1.63878,1.01551,2.77051,1.28586,1.13138,0.27532,2.51363,0.41315,4.14107,0.41315h6.3985l6.86693,8.52768zm-93.9717-16.3026c0.0117,0.93862,0.15165,1.65792,0.41988,2.16815,0.26858,0.51024,0.71717,0.8674,1.35921,1.0715,0.64134,0.20905,1.56898,0.31146,2.77583,0.31146h7.69323c1.27169,0,2.22201-0.10241,2.85803-0.30119,0.63567-0.19913,1.07327-0.54602,1.31811-1.05094,0.24484-0.49996,0.36744-1.24476,0.36744-2.22945v-5.42339c0-1.04066-0.14598-1.83153-0.4376-2.36728-0.29728-0.54071-0.76996-0.91311-1.41696-1.1172-0.65375-0.20906-1.5867-0.31111-2.79426-0.31111h-7.48878c-1.23059,0-2.16956,0.10701-2.82259,0.32634-0.65339,0.21437-1.11402,0.59173-1.38225,1.1328-0.26858,0.53539-0.42023,1.32626-0.44929,2.36728v5.42303zm22.6006,0.5152c0,1.37764-0.13996,2.51539-0.42555,3.41823-0.2863,0.90319-0.75827,1.63771-1.41732,2.19897-0.66508,0.56622-1.55729,0.98469-2.69469,1.24477-1.13138,0.26539-2.5487,0.39791-4.2463,0.39791h-10.6671c-1.62745,0-3.00969-0.13783-4.14107-0.41315-1.13173-0.27035-2.05334-0.70405-2.77051-1.28586-0.71185-0.58642-1.23059-1.33122-1.55728-2.23937-0.3267-0.90815-0.48969-2.01544-0.48969-3.3215v-6.45378c0-1.47437,0.15733-2.69362,0.47799-3.65279,0.32103-0.95918,0.82843-1.72453,1.52221-2.29571,0.69413-0.57154,1.59839-0.97441,2.71205-1.21926,1.12004-0.24519,2.53134-0.36744,4.2463-0.36744h10.6671c2.09977,0,3.77929,0.21933,5.04532,0.65304,1.26,0.43866,2.19862,1.20401,2.81693,2.30102,0.61263,1.09665,0.92161,2.62205,0.92161,4.58114v6.45378zm8.89901,7.25988v-21.2489h9.76323l14.8029,17.0249h0.80468v-17.0249h5.80925v21.2489h-9.96732l-14.5988-17.0142h-0.80504v17.0142h-5.8089zm46.057-7.77508c0.0106,0.93862,0.15166,1.65792,0.42024,2.16815,0.26823,0.51024,0.71716,0.8674,1.35886,1.0715,0.64134,0.20905,1.56897,0.31146,2.77618,0.31146h7.69287c1.27169,0,2.22201-0.10241,2.85803-0.30119,0.63567-0.19913,1.07327-0.54602,1.31811-1.05094,0.24485-0.49996,0.36744-1.24476,0.36744-2.22945v-5.42339c0-1.04066-0.14598-1.83153-0.43759-2.36728-0.29729-0.54071-0.76996-0.91311-1.41697-1.1172-0.65339-0.20906-1.5867-0.31111-2.79425-0.31111h-7.48843c-1.23059,0-2.16992,0.10701-2.82295,0.32634-0.65339,0.21437-1.11402,0.59173-1.38225,1.1328-0.26858,0.53539-0.42023,1.32626-0.44929,2.36728v5.42303zm30.8406-13.4738h5.80925v13.1985c0,1.4283,0.34406,2.42327,1.03819,2.98453,0.69414,0.5609,1.83721,0.84189,3.44693,0.84189h8.00788c0.98574,0,1.78441-0.1226,2.40307-0.36249,0.61228-0.23952,1.07291-0.64807,1.37055-1.22421,0.3033-0.57153,0.45496-1.32661,0.45496-2.27055v-13.1676h5.8089v13.6828c0,1.42866-0.15697,2.61744-0.478,3.5713-0.32102,0.95421-0.82275,1.72452-1.51051,2.3113-0.68846,0.59173-1.58102,1.01551-2.67732,1.28551-1.09063,0.26539-2.43213,0.39791-4.0128,0.39791h-10.6732c-3.0561,0-5.31921-0.61724-6.78897-1.85173-1.4641-1.2398-2.19898-3.14256-2.19898-5.71429v-13.6828zm36.9935,21.2489v-21.2489h24.8113v4.01528h-19.002v4.65272h18.4014v3.70381h-18.4014v4.86213h19.002v4.01492h-24.8113zm39.5777-17.0245v6.49453h12.1429c1.2189,0,2.07638-0.2498,2.56642-0.74976,0.49004-0.50528,0.74055-1.33689,0.75827-2.50016,0-1.15795-0.23953-1.98957-0.71752-2.49484-0.47799-0.49996-1.34752-0.74977-2.60717-0.74977h-12.1429zm21.7318,17.0245h-5.84433v-3.30059c0-1.05626-0.35575-1.82126-1.06724-2.29571-0.70583-0.4748-1.88965-0.70937-3.54615-0.70937h-11.2394v6.30567h-5.84398v-21.2489h18.4422c1.35284,0,2.5487,0.11233,3.58122,0.33662,1.0265,0.22429,1.92437,0.61228,2.683,1.16327,0.75189,0.55098,1.34149,1.31598,1.75535,2.2957,0.41988,0.97973,0.62398,2.20394,0.62398,3.67867,0,1.4694-0.315,2.6224-0.95067,3.4487-0.63603,0.83161-1.49882,1.53035-2.58378,2.09161,1.04386,0.3522,1.79645,0.62752,2.23972,0.82665,0.44929,0.2041,0.85181,0.54071,1.21323,1.02048,0.35575,0.48437,0.53681,1.14271,0.53681,1.97929v4.40787z"/>

 <path fill-rule="evenodd" fill="#033" d="m152.895,81.116,0.30118-0.33165,0.26894-0.35965,0.23492-0.3848,0.19807-0.40961,0.15768-0.4298,0.11622-0.44787,0.0716-0.46382,0.0248-0.45673v-1.13741h4.08827l128.968-2.48846-128.968-2.48846h-9.01099v-1.13705l-0.0248-0.45603-0.0716-0.46417-0.11622-0.44752-0.15767-0.43016-0.19807-0.40854-0.23457-0.38551-0.26929-0.35965-0.30154-0.33236-0.33271-0.30189-0.3593-0.26894-0.38551-0.23456-0.40889-0.19843-0.43016-0.15768-0.44752-0.11622-0.46382-0.0712-0.45602-0.0248h-6.9743l-0.45673,0.0248-0.46382,0.0712-0.44787,0.11622-0.42945,0.15768-0.40996,0.19843-0.3848,0.23456-0.35965,0.2693-0.33165,0.30118-0.30225,0.33236-0.26929,0.36-0.23527,0.38586-0.19737,0.40855-0.15803,0.4298-0.11586,0.44823-0.0712,0.46382-0.0248,0.45602v1.1367h-4.08897l-128.968,2.48846,128.968,2.48846h4.08897v1.13705l0.0248,0.45673,0.0712,0.46347,0.11586,0.44858,0.15803,0.42945,0.19737,0.40925,0.23527,0.38551,0.26929,0.35965,0.30189,0.33201,0.33201,0.30189,0.35965,0.26929,0.38551,0.23527,0.40925,0.19737,0.42945,0.15803,0.44858,0.11586,0.46347,0.0716,0.45673,0.0213h11.8963l0.45602-0.0213,0.46382-0.0716,0.44787-0.11586,0.43016-0.15803,0.40854-0.19737,0.38587-0.23527,0.36-0.26929,0.33236-0.30225zm-3.64323-7.82114-0.0142,4.16551h-11.1536v-0.76571h5.81953v-4.97692h-5.81953v-0.76536h6.23091v2.34248h4.93547z"/>

 <path fill-rule="evenodd" fill="#FFF" d="m137.734,70.157h6.93355c0.24342,0,0.44255,0.19914,0.44255,0.44256v1.90028h3.4402v-1.90028c0-2.13555-1.74685-3.88275-3.88275-3.88275h-6.934c-2.13555,0-3.88275,1.7472-3.88275,3.88275v1.91055h-4.8763l-103.936,1.69477,103.936,1.69476h4.8763v1.91091c0,2.13555,1.7472,3.88275,3.88275,3.88275h11.8566c2.13555,0,3.88275-1.7472,3.88275-3.88275v-1.91091h4.87559l103.937-1.69476-103.937-1.69477h-8.30232c0,1.75217-0.0142,3.52807-0.0142,5.30044,0,0.24342-0.19878,0.44256-0.44221,0.44256h-11.8566c-0.24343,0-0.44221-0.19914-0.44221-0.44256v-1.91091h5.81918v-3.38953h-5.81918v-1.91055c0-0.24342,0.19878-0.44256,0.44221-0.44256z"/>

 <path fill-rule="evenodd" fill="#000" d="m102.255,128.788v-3.41751h0.35469v1.46303h0.57082l2.16142-1.46729h0.61973l-2.41193,1.63382,2.47074,1.78795h-0.62043l-2.20571-1.61007h-0.58464v1.61h-0.355zm8.60421,0h-0.39295l1.77236-3.41751h0.54142l1.77236,3.41751h-0.4135l-0.43724-0.8557h-2.40343l-0.43902,0.8557zm0.63071-1.20047h2.02855l-1.01339-1.97008-1.01516,1.97008zm7.73575,1.20047v-3.41751h0.78839l2.62913,3.06318v-3.06318h0.35433v3.41751h-0.51201l-2.7085-3.14999h-0.196v3.14999h-0.35433zm8.68996,0v-3.41751h3.02811v0.34476h-2.67342v1.13315h2.60362v0.34441h-2.60362v1.25079h2.67342v0.3444h-3.02811zm9.54815,0v-3.41751h3.02776v0.34476h-2.67307v1.13315h2.60326v0.34441h-2.60326v1.25079h2.67307v0.3444h-3.02776zm8.37638-0.3444h2.31378c0.18071,0,0.32492-0.0177,0.43334-0.051,0.10914-0.0354,0.19099-0.0868,0.24768-0.15909,0.0567-0.0716,0.0953-0.16264,0.11551-0.27355,0.0213-0.11055,0.0319-0.2583,0.0319-0.4422v-0.90567c0-0.23705-0.0248-0.41917-0.0687-0.54567-0.0461-0.1265-0.12897-0.2165-0.24697-0.27071-0.11905-0.0535-0.29126-0.0804-0.51696-0.0804h-2.30811v2.72835zm-0.35469-3.07311h2.63835c0.23457,0,0.42626,0.0213,0.57756,0.0599,0.14988,0.0393,0.27142,0.10594,0.36425,0.19842,0.0928,0.0928,0.1598,0.21933,0.20268,0.37772,0.0425,0.15838,0.0648,0.36,0.0673,0.60555v0.90496c-0.004,0.30933-0.0422,0.55453-0.11303,0.73665-0.0723,0.18248-0.19559,0.31678-0.36957,0.40394-0.17468,0.0872-0.41775,0.13039-0.72921,0.13039h-2.63835v-3.41751zm9.31075,3.41751h-0.35433v-3.41751h0.35433v3.41751zm4.98791-3.41751h3.68292v0.34476h-1.66996v3.07275h-0.35433v-3.07275h-1.65863v-0.34476zm8.99575,3.41751h-0.35433v-3.41751h0.35433v3.41751zm8.7789-2.26381c-0.004-0.23067-0.0319-0.40536-0.0836-0.52512-0.0517-0.11906-0.1389-0.20268-0.26114-0.25051-0.12296-0.0475-0.30189-0.0712-0.53646-0.0712h-1.49669c-0.21898,0-0.39331,0.0248-0.52193,0.0755-0.12862,0.0503-0.22394,0.13606-0.2863,0.26043-0.0631,0.12295-0.0967,0.29374-0.10276,0.51095v1.09204c0.002,0.16583,0.0213,0.30118,0.0535,0.40784,0.0354,0.10665,0.0854,0.19063,0.15661,0.25193,0.0712,0.0609,0.16335,0.10417,0.27673,0.12968,0.11233,0.0248,0.25335,0.0379,0.42414,0.0379h1.49669c0.24591,0,0.4298-0.0213,0.55205-0.0684,0.12153-0.045,0.20622-0.12472,0.25299-0.23776,0.0468-0.11409,0.0723-0.28736,0.0762-0.52122v-1.09204zm0.35469,1.09204c-0.002,0.2452-0.0248,0.44398-0.068,0.59563-0.0439,0.15201-0.11267,0.26929-0.20693,0.35327-0.0953,0.0836-0.21862,0.14173-0.36921,0.17469-0.15201,0.0319-0.34724,0.0482-0.58677,0.0482h-1.49669c-0.23209,0-0.42839-0.0213-0.58925-0.0616-0.16087-0.0418-0.29056-0.10736-0.38906-0.19772-0.0985-0.0893-0.1715-0.20905-0.21827-0.35751-0.0464-0.14847-0.0712-0.33414-0.0737-0.55489v-1.06334c0.002-0.22394,0.0248-0.41209,0.0698-0.56445,0.0443-0.15272,0.1141-0.27744,0.21083-0.37418,0.0967-0.096,0.22465-0.16759,0.38551-0.21366,0.16016-0.045,0.36107-0.068,0.60414-0.068h1.49669c0.2902,0,0.52264,0.0354,0.69839,0.10099,0.17539,0.0673,0.30756,0.18956,0.39543,0.36673,0.0879,0.17716,0.13358,0.42768,0.13713,0.7526v1.06334zm4.86992,1.17177v-3.41751h0.78838l2.62914,3.06318v-3.06318h0.35468v3.41751h-0.51236l-2.70851-3.14999h-0.197v3.14999h-0.35433z"/>

</svg>