<?xml version="1.0" encoding="UTF-8" standalone="no"?>
<!-- Created with Inkscape (http://www.inkscape.org/) -->

<svg
   xmlns:dc="http://purl.org/dc/elements/1.1/"
   xmlns:cc="http://creativecommons.org/ns#"
   xmlns:rdf="http://www.w3.org/1999/02/22-rdf-syntax-ns#"
   xmlns:svg="http://www.w3.org/2000/svg"
   xmlns="http://www.w3.org/2000/svg"
   xmlns:sodipodi="http://sodipodi.sourceforge.net/DTD/sodipodi-0.dtd"
   xmlns:inkscape="http://www.inkscape.org/namespaces/inkscape"
   width="297mm"
   height="210mm"
   viewBox="0 0 297 210"
   version="1.1"
   id="svg8"
   inkscape:version="0.92.4 (5da689c313, 2019-01-14)"
   sodipodi:docname="CandQ.svg">
  <defs
     id="defs2">
    <linearGradient
       x1="119.017"
       y1="161.009"
       gradientTransform="matrix(0.93750076,0,0,0.93750076,-47.033067,36.830824)"
       x2="119.017"
       gradientUnits="userSpaceOnUse"
       y2="158.935"
       id="b">
      <stop
         id="stop12"
         offset="0"
         stop-color="#3C6" />
      <stop
         id="stop14"
         offset="1"
         stop-color="#063" />
    </linearGradient>
    <style
       id="style17"
       type="text/css" />
    <linearGradient
       x1="90.487198"
       y1="136.907"
       gradientTransform="matrix(0.93750076,0,0,0.93750076,-47.033067,36.830824)"
       x2="91.552299"
       gradientUnits="userSpaceOnUse"
       y2="136.907"
       id="linearGradient3074">
      <stop
         id="stop19"
         offset="0"
         stop-color="#063" />
      <stop
         id="stop21"
         offset="1"
         stop-color="#3C6" />
    </linearGradient>
  </defs>
  <sodipodi:namedview
     id="base"
     pagecolor="#ffffff"
     bordercolor="#666666"
     borderopacity="1.0"
     inkscape:pageopacity="0.0"
     inkscape:pageshadow="2"
     inkscape:zoom="0.49497475"
     inkscape:cx="-338.61802"
     inkscape:cy="213.46731"
     inkscape:document-units="mm"
     inkscape:current-layer="layer1"
     showgrid="false"
     inkscape:window-width="2498"
     inkscape:window-height="1057"
     inkscape:window-x="1974"
     inkscape:window-y="-8"
     inkscape:window-maximized="1" />
  <metadata
     id="metadata5">
    <rdf:RDF>
      <cc:Work
         rdf:about="">
        <dc:format>image/svg+xml</dc:format>
        <dc:type
           rdf:resource="http://purl.org/dc/dcmitype/StillImage" />
        <dc:title></dc:title>
      </cc:Work>
    </rdf:RDF>
  </metadata>
  <g
     inkscape:label="Layer 1"
     inkscape:groupmode="layer"
     id="layer1"
     transform="translate(0,-87)">
    <g
       id="g877"
       inkscape:export-xdpi="90"
       inkscape:export-ydpi="90">
      <rect
         id="rect26"
         x="14.34609"
         y="130.38811"
         width="271.81302"
         height="136.23633"
         style="fill:#000000;fill-rule:evenodd;stroke-width:0.9173854" />
      <g
         transform="matrix(3.4672835,0,0,3.4672835,-28.532003,-439.00667)"
         id="g163">
        <path
           style="fill:#003333;fill-rule:evenodd;stroke-width:0.26458332"
           inkscape:connector-curvature="0"
           d="m 23.944586,173.28576 -2.975054,-5.3e-4 c -0.23925,-0.005 -0.475499,-0.0178 -0.713624,-0.0465 -0.17072,-0.0238 -0.335531,-0.055 -0.502502,-0.1004 -0.09778,-0.0296 -0.188905,-0.0645 -0.28425,-0.10322 l -0.129373,-0.0657 -0.120375,-0.0754 -0.110813,-0.0851 -0.10125,-0.0949 -0.09056,-0.10425 -0.07987,-0.11315 -0.09825,-0.18431 c -0.04866,-0.11513 -0.08625,-0.22876 -0.117842,-0.35035 -0.03741,-0.16462 -0.06094,-0.32634 -0.07631,-0.495 -0.0085,-0.12506 -0.01312,-0.24965 -0.01415,-0.37584 l 0.0021,-1.704 c 0.0041,-0.0992 0.0099,-0.19847 0.01781,-0.29813 0.02307,-0.23184 0.06019,-0.45262 0.128812,-0.67612 0.03337,-0.0963 0.07022,-0.18572 0.115406,-0.27703 l 0.07022,-0.12085 0.08325,-0.11484 0.0945,-0.10519 0.105283,-0.0952 0.11531,-0.0848 0.124971,-0.0743 0.134062,-0.0638 0.216469,-0.0769 c 0.201001,-0.0564 0.399375,-0.0914 0.605813,-0.11785 0.254998,-0.0271 0.508125,-0.0398 0.764062,-0.0443 l 2.651151,-7.9e-4 c 0.260998,0.002 0.517311,0.0134 0.77728,0.0418 0.194251,0.0246 0.382876,0.0582 0.573,0.10659 0.09985,0.0279 0.19472,0.0602 0.291002,0.0992 0.114562,0.0515 0.218249,0.10884 0.323061,0.17859 0.05897,0.0435 0.11447,0.0879 0.169593,0.13632 0.08991,0.086 0.166031,0.17353 0.239625,0.27365 0.04294,0.0647 0.08091,0.12872 0.117002,0.19725 0.05888,0.12478 0.101719,0.24628 0.137998,0.37885 0.02653,0.11494 0.04594,0.22781 0.06084,0.34453 0.01865,0.19809 0.02005,0.39206 0.0227,0.5909 h -2.00878 l -0.01201,-0.29878 -0.02606,-0.1469 -0.04594,-0.10744 c -0.03675,-0.0525 -0.07153,-0.09 -0.126187,-0.12431 -0.202126,-0.11119 -0.455906,-0.12525 -0.681937,-0.13172 l -2.042814,-8e-4 c -0.220125,0.001 -0.442312,0.006 -0.660749,0.0401 -0.103783,0.0185 -0.196781,0.0402 -0.270939,0.12094 -0.06872,0.0954 -0.08212,0.216 -0.09628,0.32943 -0.0077,0.094 -0.01124,0.18685 -0.01246,0.28088 l 0.0019,1.485 0.01378,0.16528 c 0.01659,0.10144 0.03647,0.18825 0.08269,0.27975 l 0.04678,0.0679 c 0.06563,0.0696 0.126936,0.10284 0.216186,0.13378 0.22022,0.0599 0.444095,0.0682 0.670502,0.0704 l 2.078905,-0.001 c 0.199125,-0.006 0.400875,-0.0129 0.593251,-0.0691 0.07153,-0.0272 0.121875,-0.0548 0.173625,-0.11268 0.07556,-0.10529 0.0885,-0.23269 0.09712,-0.35935 l 0.0065,-0.28397 h 2.012532 l -0.0073,0.40594 c -0.0122,0.25491 -0.03759,0.49978 -0.09553,0.74784 -0.03056,0.1155 -0.06656,0.22238 -0.113345,0.33169 l -0.06131,0.11681 -0.07425,0.11082 -0.08588,0.102 -0.09665,0.0922 -0.106968,0.0828 -0.116721,0.0726 -0.125717,0.0631 -0.205687,0.0769 c -0.469784,0.13678 -0.961313,0.15862 -1.447221,0.16115 z m 5.022665,-2.26209 c 0.0049,0.17325 0.0149,0.35662 0.105092,0.50906 l 0.04294,0.0518 c 0.12478,0.1095 0.287343,0.13172 0.447188,0.15244 0.133874,0.0128 0.265968,0.0177 0.400969,0.0191 l 2.151935,-0.001 c 0.207563,-0.007 0.422251,-0.0145 0.62044,-0.0848 0.07022,-0.0318 0.116811,-0.0617 0.162187,-0.12563 0.08597,-0.1545 0.08887,-0.35475 0.09187,-0.52762 l -0.0019,-1.52531 c -0.0093,-0.16097 -0.0223,-0.32607 -0.109125,-0.46669 l 2.925789,-0.0579 c -0.04442,-0.0388 -0.08475,-0.0631 -0.138271,-0.0877 -0.228283,-0.0828 -0.483076,-0.0864 -0.72271,-0.0892 l -2.093719,0.001 -0.203531,0.0102 c -0.156937,0.0151 -0.308154,0.0334 -0.451313,0.10115 -0.04772,0.0283 -0.08081,0.0544 -0.116906,0.0952 -0.10256,0.14409 -0.118591,0.33666 -0.132093,0.50719 l -0.0039,1.51921 z m 5.979662,0.14015 c -0.0019,0.23663 -0.01585,0.46716 -0.05653,0.69975 -0.01445,0.0732 -0.03103,0.14485 -0.05053,0.21619 l -0.05035,0.15113 c -0.04134,0.0976 -0.08512,0.18478 -0.139123,0.27534 l -0.121407,0.16125 -0.143343,0.14166 -0.167531,0.12281 -0.18994,0.10294 -0.21178,0.0836 c -0.09759,0.0297 -0.194437,0.0562 -0.293156,0.0783 -0.312094,0.0633 -0.624001,0.0877 -0.94125,0.0954 l -0.168751,0.002 -2.905125,-5.3e-4 c -0.272999,-0.005 -0.541311,-0.0217 -0.810749,-0.0637 l -0.128905,-0.0236 c 2.814479,-0.0336 2.66319,-0.0776 2.50952,-0.13448 l -0.204375,-0.0952 -0.184687,-0.1141 -0.164531,-0.13462 -0.141843,-0.15338 -0.119439,-0.17175 -0.09647,-0.18881 c -0.02663,-0.0676 -0.05175,-0.13406 -0.0735,-0.20363 -0.05494,-0.19218 -0.08428,-0.38334 -0.09937,-0.58303 -0.0052,-0.0875 -0.0081,-0.17456 -0.0085,-0.26278 l 2.64e-4,-1.78341 c 0.0043,-0.20615 0.01857,-0.40809 0.05175,-0.61256 0.0181,-0.0986 0.03994,-0.19443 0.06788,-0.29137 l 0.05569,-0.15882 c 0.04472,-0.10125 0.09187,-0.192 0.15,-0.28696 l 0.128813,-0.16669 0.151124,-0.14466 0.172125,-0.12206 0.192561,-0.10106 0.211408,-0.0806 0.228843,-0.0616 c 0.386157,-0.0799 0.775406,-0.10041 1.169249,-0.10228 l 2.928567,7.9e-4 c 0.254344,0.005 0.505032,0.0211 0.757876,0.0565 0.159467,0.0258 0.313499,0.0584 0.468936,0.10407 l 0.2085,0.0769 0.129188,0.0637 0.121031,0.0737 0.112969,0.0835 0.103968,0.0935 0.09469,0.10294 0.08522,0.11212 0.109593,0.1861 c 0.04378,0.0929 0.07969,0.18422 0.111469,0.28153 0.03085,0.10622 0.05513,0.21047 0.07509,0.31884 0.02878,0.18394 0.04322,0.36404 0.04875,0.54957 l 0.0011,1.80853 z m 2.64047,-2.09109 v 4.22119 h -1.957125 v -6.04229 h 3.20249 l 2.044406,4.32104 2.042811,-4.32104 h 3.202596 v 6.04229 h -1.957123 v -4.22108 l -2.066062,4.22108 h 0.52919 l -2.066155,-4.22069 z m 11.268181,9e-5 v 4.22109 h -1.957123 v -6.04229 h 3.20249 l 2.044407,4.32104 2.042813,-4.32104 h 3.202596 v 6.04229 h -1.95703 v -4.22109 l -2.06625,4.22109 h -2.445658 l -2.06625,-4.22109 z m 10.852679,4.22109 h 0.687388 l 3.660272,-6.04229 h 2.514843 l 3.62466,6.0299 v -6.0299 h 2.889091 l 3.823785,4.39772 v -4.39772 h 1.957125 v 6.04229 h -2.943833 l -3.769043,-4.39267 v 4.39267 h -4.24725 l -0.825656,-1.41741 h -3.562959 l -0.833252,1.41741 z m 2.637002,-4.42876 -0.929908,1.52897 h 1.82475 z m 16.230097,2.89097 2.624344,-2.6e-4 c 0.224626,-0.004 0.450564,-0.0149 0.670406,-0.0684 l 0.06591,-0.0192 c 0.1245,-0.0442 0.226687,-0.0898 0.299905,-0.20503 0.03891,-0.0786 0.05728,-0.15234 0.07209,-0.23925 0.0084,-0.0726 0.0122,-0.14362 0.01378,-0.21712 l -0.0047,-1.57594 -0.01153,-0.0937 -0.01857,-0.083 -0.02466,-0.0727 -0.03047,-0.0629 -0.03572,-0.0548 c -0.03628,-0.0417 -0.0705,-0.077 -0.115874,-0.10857 -0.177001,-0.10631 -0.393843,-0.13284 -0.595124,-0.15234 -0.118783,-0.008 -0.235969,-0.0123 -0.354471,-0.0135 h -2.555716 v 2.96672 z m -1.957123,-4.5045 5.248037,5.3e-4 c 0.278064,0.005 0.551063,0.026 0.824907,0.0786 0.137999,0.0289 0.269155,0.0664 0.403124,0.11269 l 0.206812,0.0909 0.188158,0.11082 0.168373,0.1305 0.148688,0.15187 0.127688,0.17128 0.106125,0.18919 c 0.03825,0.0857 0.07322,0.17081 0.103126,0.2595 0.05531,0.17991 0.08925,0.35794 0.111374,0.54431 0.01397,0.13997 0.02127,0.27825 0.02429,0.41803 l -0.0011,1.58644 c -0.0047,0.1786 -0.01857,0.35231 -0.04434,0.52856 -0.027,0.15788 -0.06281,0.30703 -0.113625,0.45835 -0.02614,0.0702 -0.05428,0.13753 -0.08522,0.20493 l -0.06778,0.12544 -0.07931,0.11953 -0.08972,0.11101 -0.09956,0.10199 -0.109407,0.0929 -0.118499,0.0834 -0.1275,0.074 -0.205968,0.0933 c -0.156565,0.0581 -0.310406,0.0994 -0.473345,0.13247 -0.08925,0.0155 -0.17803,0.0289 -0.267282,0.0402 -0.199781,0.0205 -0.396563,0.03 -0.596717,0.0315 h -5.181389 v -6.04228 z"
           id="path44" />
        <path
           style="fill:#ffffff;fill-rule:evenodd;stroke-width:0.26458332"
           inkscape:connector-curvature="0"
           d="m 23.92557,173.07651 h -2.861072 c -0.598686,0 -1.066218,-0.0607 -1.404186,-0.18216 -0.337971,-0.12291 -0.578813,-0.32672 -0.722251,-0.61284 -0.143532,-0.28622 -0.216094,-0.68297 -0.216094,-1.19054 v -1.59553 c 0.0078,-0.54806 0.08644,-0.96787 0.23925,-1.25943 0.15122,-0.29297 0.401251,-0.49678 0.751501,-0.61285 0.35025,-0.11747 0.850313,-0.1755 1.5,-0.1755 h 2.527686 c 0.549376,0 1.004626,0.054 1.365658,0.16069 0.359624,0.10791 0.638905,0.30366 0.836437,0.58584 0.199031,0.2821 0.297845,0.67622 0.297845,1.18107 h -1.594126 c 0,-0.29429 -0.08944,-0.50353 -0.270094,-0.62635 -0.18047,-0.12281 -0.478314,-0.18356 -0.89653,-0.18356 h -1.970627 c -0.364218,0 -0.631217,0.0217 -0.800812,0.0648 -0.169781,0.0418 -0.287063,0.13097 -0.351938,0.26588 -0.06478,0.13368 -0.09722,0.351 -0.09722,0.64931 v 1.39303 c 0,0.27947 0.04172,0.49406 0.124971,0.64125 0.08184,0.14709 0.211405,0.24703 0.384281,0.29963 0.174373,0.0526 0.418219,0.0797 0.731438,0.0797 h 1.972124 c 0.307219,0 0.54328,-0.0217 0.708375,-0.0635 0.165187,-0.0419 0.285469,-0.12291 0.361031,-0.24029 0.07575,-0.11878 0.114282,-0.29287 0.114282,-0.52237 h 1.594122 c -0.0031,0.51562 -0.06797,0.91106 -0.192936,1.18518 -0.126561,0.27535 -0.353343,0.46979 -0.682125,0.58585 -0.328687,0.11465 -0.811686,0.17269 -1.448999,0.17269 z m 4.813115,-2.049 c 0.003,0.24834 0.04013,0.43865 0.111096,0.57365 0.07106,0.135 0.189844,0.2295 0.359624,0.2835 0.169688,0.0553 0.415126,0.0823 0.734438,0.0823 h 2.035498 c 0.336471,0 0.587907,-0.027 0.75619,-0.0797 0.168092,-0.0526 0.283967,-0.14438 0.34875,-0.27797 0.06469,-0.13228 0.09712,-0.32944 0.09712,-0.58997 v -1.43484 c 0,-0.27535 -0.03853,-0.48469 -0.115686,-0.62635 -0.07866,-0.14306 -0.203719,-0.24168 -0.375,-0.29559 -0.172876,-0.0553 -0.419719,-0.0824 -0.739219,-0.0824 H 29.97009 c -0.325594,0 -0.574032,0.0284 -0.746813,0.0864 -0.172876,0.0567 -0.294844,0.15656 -0.365813,0.29963 -0.07097,0.14175 -0.111093,0.351 -0.118782,0.62634 z m 5.979742,0.13631 c 0,0.3645 -0.03703,0.66544 -0.112594,0.90441 -0.07575,0.23897 -0.200623,0.43331 -0.374999,0.58171 -0.175969,0.14991 -0.41203,0.26063 -0.712967,0.32944 -0.299345,0.0702 -0.674346,0.10528 -1.1235,0.10528 H 29.57203 c -0.430686,0 -0.796311,-0.0365 -1.095751,-0.1094 -0.299342,-0.0714 -0.543187,-0.18619 -0.732935,-0.34013 -0.188344,-0.15525 -0.325594,-0.35222 -0.412033,-0.59259 -0.08644,-0.24019 -0.129562,-0.53316 -0.129562,-0.87872 v -1.70756 c 0,-0.3901 0.04162,-0.71269 0.126376,-0.96647 0.08494,-0.25378 0.219279,-0.45628 0.402841,-0.6075 0.183658,-0.15113 0.422815,-0.25781 0.717564,-0.3226 0.296343,-0.0648 0.66975,-0.0971 1.1235,-0.0971 h 2.822337 c 0.555561,0 0.999937,0.058 1.334904,0.17269 0.333375,0.11606 0.581814,0.31856 0.745313,0.60881 0.162095,0.29025 0.243843,0.69384 0.243843,1.21219 z m 11.175656,-3.70126 h -2.859564 l -2.129531,4.5044 h -0.09253 l -2.131124,-4.5044 h -2.859458 v 5.62211 h 1.536936 v -4.50178 h 0.203814 l 2.203592,4.50178 h 2.183625 l 2.2035,-4.50178 h 0.203719 v 4.50178 h 1.537031 v -5.62211 z m 11.26818,0 H 54.3027 l -2.129531,4.5044 h -0.09253 l -2.131126,-4.5044 h -2.859458 v 5.62211 h 1.537031 v -4.50178 h 0.203626 l 2.203688,4.50178 h 2.183529 l 2.203596,-4.50178 h 0.203718 v 4.50178 h 1.537031 v -5.62211 z m 2.407312,5.62211 h -1.794751 l 3.405849,-5.62211 h 2.277658 l 3.379496,5.62211 h -1.80553 l -0.825563,-1.41731 h -3.803915 l -0.833249,1.41731 z m 1.453687,-2.47969 h 2.56472 l -1.222219,-2.08819 h -0.07247 z m 6.388602,2.47969 v -5.62211 h 2.583281 l 3.916604,4.5044 h 0.2129 v -4.5044 h 1.53703 v 5.62211 h -2.63718 l -3.862604,-4.50178 h -0.213 v 4.50178 z m 10.934915,-1.11769 h 2.76693 c 0.378,0 0.66825,-0.0323 0.87028,-0.0985 0.20222,-0.0648 0.34107,-0.16472 0.41672,-0.30103 0.0756,-0.13631 0.1126,-0.32128 0.1126,-0.55753 v -1.47403 c 0,-0.33479 -0.0987,-0.57769 -0.29785,-0.72891 -0.19753,-0.15113 -0.56475,-0.22678 -1.10175,-0.22678 h -2.76693 v 3.38682 z m -1.53694,-4.5044 h 4.96125 c 0.39966,0 0.74222,0.0378 1.02619,0.11335 0.28547,0.0756 0.52013,0.19565 0.7021,0.35775 0.18375,0.16331 0.3195,0.37387 0.40893,0.63037 0.0911,0.25641 0.13744,0.57366 0.14203,0.94894 v 1.48894 c 0,0.49125 -0.0742,0.88818 -0.22218,1.19325 -0.14822,0.30637 -0.38888,0.53043 -0.72225,0.6735 -0.33338,0.14447 -0.77466,0.216 -1.32563,0.216 h -4.97043 v -5.62211 z"
           id="path46" />
      </g>
      <path
         id="path56"
         d="m 158.25902,177.6968 0.27631,-0.30408 0.24673,-0.33009 0.21553,-0.353 0.18172,-0.37575 0.14465,-0.3943 0.10662,-0.41088 0.0657,-0.4255 0.0229,-0.41899 v -1.04344 h 3.75052 l 118.31337,-2.2829 -118.31337,-2.28286 h -8.26655 v -1.04313 l -0.0229,-0.41833 -0.0657,-0.42585 -0.10662,-0.41052 -0.14466,-0.39465 -0.18172,-0.37478 -0.21518,-0.35366 -0.24704,-0.33009 -0.27662,-0.30477 -0.30523,-0.27704 -0.3296,-0.24687 -0.35366,-0.21532 -0.37511,-0.18203 -0.39462,-0.14458 -0.41055,-0.1068 -0.4255,-0.0652 -0.41835,-0.0243 h -6.39817 l -0.419,0.0243 -0.4255,0.0652 -0.41087,0.1068 -0.39397,0.14458 -0.3761,0.18203 -0.353,0.21532 -0.32995,0.24722 -0.30425,0.27634 -0.27728,0.30478 -0.24705,0.33008 -0.21583,0.35398 -0.18107,0.37481 -0.14496,0.3943 -0.10628,0.41119 -0.0653,0.4255 -0.0229,0.41836 v 1.04279 h -3.75116 l -118.313366,2.28286 118.313366,2.28289 h 3.75116 v 1.0431 l 0.0229,0.41902 0.0653,0.42516 0.10628,0.41153 0.14496,0.39395 0.18107,0.37548 0.21583,0.35362 0.24705,0.33009 0.27693,0.30443 0.30457,0.27703 0.32994,0.24722 0.35366,0.21601 0.37544,0.18099 0.39397,0.14494 0.41152,0.10644 0.42518,0.0655 0.419,0.0208 h 10.91349 l 0.41835,-0.0208 0.4255,-0.0655 0.41087,-0.10644 0.39463,-0.14494 0.37478,-0.18099 0.35399,-0.21601 0.33026,-0.24722 z m -3.34225,-7.17499 -0.0132,3.82136 h -10.23215 v -0.70244 h 5.33875 v -4.56575 h -5.33875 v -0.70212 h 5.71615 v 2.14895 h 4.52772 z"
         inkscape:connector-curvature="0"
         style="fill:#aa8800;fill-rule:evenodd;stroke-width:0.9173854" />
      <path
         id="path58"
         d="m 144.26421,167.64317 h 6.36074 c 0.22332,0 0.40598,0.18272 0.40598,0.40601 v 1.74329 h 3.15599 v -1.74329 c 0,-1.95911 -1.60253,-3.56197 -3.56197,-3.56197 h -6.36116 c -1.95912,0 -3.56197,1.60286 -3.56197,3.56197 v 1.75272 h -4.47345 l -95.349369,1.55473 95.349369,1.55476 h 4.47345 v 1.75302 c 0,1.95916 1.60285,3.56201 3.56197,3.56201 h 10.87708 c 1.95912,0 3.56198,-1.60285 3.56198,-3.56201 v -1.75302 h 4.47279 l 95.35029,-1.55476 -95.35029,-1.55473 h -7.61643 c 0,1.60739 -0.0132,3.23657 -0.0132,4.86251 0,0.2233 -0.18235,0.40602 -0.40568,0.40602 h -10.87707 c -0.22333,0 -0.40568,-0.18272 -0.40568,-0.40602 v -1.75302 h 5.33843 v -3.10949 h -5.33843 v -1.75272 c 0,-0.22329 0.18235,-0.40601 0.40568,-0.40601 z"
         inkscape:connector-curvature="0"
         style="fill:#ffffff;fill-rule:evenodd;stroke-width:0.9173854" />
      <g
         transform="matrix(3.4672835,0,0,3.4672835,-387.58073,-438.66626)"
         id="g183">
        <g
           id="g173">
          <path
             sodipodi:nodetypes="ccccccccccccccccccccccccccccccccccccccccccccccccccccccccccccccccccccccccccccccccccccccccccccccccccccccccccccccccccccccccccccccccccccccccccccccccccccccccccccccccccccccccccccccccccccccccccc"
             id="path52"
             d="m 133.04824,184.95319 c -0.30056,-0.002 -0.59578,-0.0178 -0.8925,-0.0642 l -0.129,-0.0236 c -0.1605,-0.034 -0.31181,-0.078 -0.46546,-0.135 l -0.20447,-0.0951 -0.1846,-0.11419 -0.16453,-0.13453 -0.14184,-0.15347 -0.11944,-0.17166 -0.0966,-0.18881 -0.0571,-0.15131 c -0.0655,-0.20925 -0.0993,-0.41681 -0.11568,-0.63535 -0.006,-0.0875 -0.008,-0.17465 -0.008,-0.26287 l 2.6e-4,-1.78331 c 0.005,-0.20625 0.0186,-0.40819 0.0517,-0.61266 0.0181,-0.0985 0.0399,-0.19444 0.0679,-0.29138 l 0.0557,-0.15881 c 0.0446,-0.10106 0.0918,-0.19209 0.15,-0.28697 l 0.12881,-0.16659 0.15104,-0.14466 0.17222,-0.12215 0.19256,-0.10106 0.21131,-0.0806 0.22894,-0.0615 c 0.38606,-0.08 0.77531,-0.10041 1.16925,-0.10238 l 2.92846,8e-4 c 0.25443,0.005 0.50512,0.021 0.75797,0.0564 0.15947,0.0258 0.3135,0.0584 0.46893,0.10406 l 0.2085,0.0769 0.12919,0.0637 0.12103,0.0738 0.11297,0.0835 0.10397,0.0935 0.0946,0.10294 0.0852,0.11203 0.10959,0.18619 c 0.0438,0.0928 0.0797,0.18421 0.11157,0.28143 0.0308,0.10622 0.0551,0.21047 0.0751,0.31885 0.0288,0.18394 0.0432,0.36403 0.0488,0.54956 l 10e-4,1.80853 c -0.002,0.23653 -0.0159,0.46725 -0.0566,0.69985 -0.0145,0.0732 -0.031,0.14475 -0.0504,0.21609 l -0.0504,0.15112 c -0.0413,0.0976 -0.0851,0.18479 -0.13913,0.27535 l -0.1214,0.16125 -0.14335,0.14166 -0.16753,0.12281 -0.18994,0.10293 -0.21178,0.0837 c -0.10509,0.0321 -0.20906,0.0595 -0.31575,0.083 -0.14868,0.0285 -0.29578,0.0496 -0.4455,0.0647 l 0.34444,2.78024 -2.21672,-2.75259 h -1.59299 z m -1.58389,-6.04206 v 6.04229 c -1.99964,-0.6458 -1.70025,-6.09763 0,-6.04229 z m 3.93617,3.77193 c 0.005,0.17343 0.0148,0.35662 0.1051,0.50915 l 0.0429,0.0519 c 0.12478,0.1095 0.28734,0.13172 0.44718,0.15244 0.13388,0.0128 0.26597,0.0177 0.40106,0.0191 l 2.15185,-0.001 c 0.20756,-0.007 0.42225,-0.0145 0.62043,-0.0848 0.0702,-0.0318 0.11682,-0.0617 0.16219,-0.12562 0.086,-0.15441 0.089,-0.35466 0.0919,-0.52763 l -0.002,-1.52531 c -0.009,-0.16087 -0.0224,-0.32606 -0.10922,-0.46669 l -0.0492,-0.0584 c -0.0444,-0.0389 -0.0847,-0.0632 -0.13828,-0.0877 -0.22809,-0.0828 -0.48318,-0.0864 -0.72271,-0.0892 l -2.09363,0.001 -0.20353,0.0102 c -0.15684,0.0151 -0.30816,0.0335 -0.45141,0.10125 -0.0476,0.0282 -0.0806,0.0542 -0.11672,0.095 -0.10256,0.144 -0.11878,0.33693 -0.13228,0.50728 l -0.004,1.51913 z m 7.73981,-3.77193 h 1.95703 l 0.001,3.76529 c 0.009,0.20119 0.0361,0.42356 0.19621,0.56353 0.19472,0.14672 0.47025,0.16678 0.70566,0.17494 l 2.19094,7.9e-4 0.17353,-0.006 c 0.16378,-0.0142 0.32222,-0.0358 0.46875,-0.11597 l 0.0677,-0.0499 c 0.0707,-0.069 0.1081,-0.13631 0.14382,-0.22894 0.0181,-0.06 0.0309,-0.11728 0.0415,-0.17981 0.009,-0.078 0.0134,-0.15347 0.015,-0.2325 v -3.69189 h 1.95712 l -5.3e-4,3.90367 c -0.005,0.22293 -0.0219,0.43949 -0.0632,0.65803 -0.0161,0.0771 -0.0348,0.15197 -0.0566,0.22706 l -0.0555,0.15769 c -0.0444,0.10125 -0.0914,0.19218 -0.14821,0.28603 l -0.12685,0.16734 -0.14869,0.14663 -0.16959,0.12618 -0.18985,0.10566 -0.20878,0.0858 c -0.0952,0.0307 -0.18937,0.0583 -0.28603,0.0807 -0.19734,0.042 -0.39356,0.0669 -0.594,0.0822 -0.153,0.0101 -0.30543,0.0148 -0.45806,0.0153 l -2.979,-0.002 c -0.14681,-0.006 -0.29128,-0.0154 -0.43677,-0.03 -0.13435,-0.0177 -0.26447,-0.0396 -0.39648,-0.0669 l -0.24168,-0.0661 c -0.11363,-0.0393 -0.22031,-0.0819 -0.32916,-0.13237 l -0.19622,-0.11138 -0.17671,-0.13059 -0.15619,-0.15019 -0.135,-0.16894 -0.11353,-0.18646 -0.0921,-0.20325 -0.0708,-0.21873 -0.0498,-0.23371 c -0.0177,-0.12619 -0.0296,-0.25013 -0.0368,-0.37791 l -0.002,-3.96375 z m 9.78778,6.04229 v -6.04229 h 6.98484 v 1.48247 h -5.02772 v 0.81094 h 4.86871 v 1.40015 h -4.86871 v 0.86625 h 5.02772 v 1.48247 h -6.98484 z m 10.89178,-4.5045 v 1.29834 l 3.10724,-0.003 0.17663,-0.0212 c 0.0649,-0.0157 0.11859,-0.032 0.17963,-0.0612 l 0.0679,-0.0506 c 0.0479,-0.0571 0.0712,-0.10837 0.0963,-0.17916 l 0.0313,-0.14887 0.0132,-0.1875 c -0.005,-0.18066 -0.0138,-0.408 -0.15966,-0.53747 -0.0486,-0.0316 -0.0911,-0.049 -0.14587,-0.0678 l -0.15835,-0.0305 -0.20831,-0.0112 h -3 z m 3.56915,2.9728 c -0.17568,-0.0943 -0.38025,-0.11681 -0.57562,-0.1304 -0.0739,-0.004 -0.14813,-0.006 -0.22163,-0.007 h -2.7628 v 1.66838 h -1.96622 v -6.04229 l 5.15839,5.3e-4 c 0.2536,0.004 0.50372,0.021 0.75488,0.0613 0.13097,0.0229 0.2564,0.0524 0.38475,0.0899 l 0.204,0.0762 c 0.0979,0.0456 0.18862,0.0936 0.28134,0.14972 l 0.17222,0.12665 0.15431,0.15159 0.13378,0.17457 0.11269,0.19631 0.0709,0.16116 c 0.077,0.20794 0.1186,0.41343 0.14213,0.633 0.0219,0.24825 0.0243,0.49218 -0.01,0.73903 -0.0199,0.11484 -0.0462,0.22144 -0.0841,0.33103 -0.0326,0.0824 -0.0683,0.15675 -0.11213,0.23287 -0.11906,0.18394 -0.27215,0.34285 -0.44531,0.47522 0.0883,0.0332 0.1755,0.0681 0.26025,0.11053 0.0775,0.0456 0.14212,0.0934 0.20916,0.15357 0.0498,0.0501 0.0938,0.1005 0.13781,0.15571 l 0.0819,0.13894 0.0569,0.156 0.0325,0.1696 0.0104,0.17953 v 1.37934 h -1.96641 l -0.004,-1.16512 -0.0264,-0.13594 -0.0472,-0.10209 c -0.0403,-0.0542 -0.0791,-0.0926 -0.13687,-0.12854 z"
             inkscape:connector-curvature="0"
             style="fill:#003333;fill-rule:evenodd;stroke-width:0.26458332" />
          <text
             transform="scale(1.4193192,0.70456314)"
             id="text113-3"
             y="262.51645"
             x="120.44106"
             style="font-style:normal;font-variant:normal;font-weight:normal;font-stretch:normal;font-size:15.60264587px;line-height:1.25;font-family:'Cambria Math';-inkscape-font-specification:'Cambria Math';letter-spacing:0px;word-spacing:0px;fill:#003333;fill-opacity:1;stroke:none;stroke-width:0.39006615"
             xml:space="preserve"><tspan
               id="tspan121-6"
               style="font-style:normal;font-variant:normal;font-weight:normal;font-stretch:normal;font-size:11.44194221px;font-family:'Arial Narrow';-inkscape-font-specification:'Arial Narrow';fill:#003333;stroke-width:0.39006615"
               y="262.51645"
               x="120.44106"
               sodipodi:role="line">Y</tspan></text>
        </g>
        <g
           id="g168"
           transform="translate(13.740649,26.695867)"
           style="fill:#ffffff">
          <path
             sodipodi:nodetypes="cccccssccsscccsscccsccccccssccssccssccccccscssccsccscccsscsccccccccccccccccccscccscccscsccccscccsccccscc"
             id="path54"
             d="m 125.78642,160.25202 -0.28078,-2.26688 c 0.27365,-0.0152 0.5129,-0.0469 0.7169,-0.0947 0.30085,-0.0688 0.537,-0.17953 0.71288,-0.32934 0.17437,-0.1485 0.29934,-0.34284 0.375,-0.58181 0.0757,-0.23888 0.11269,-0.53991 0.11269,-0.90441 v -1.70756 c 0,-0.51834 -0.0818,-0.92194 -0.24394,-1.21209 -0.1635,-0.29025 -0.41194,-0.49275 -0.74522,-0.60882 -0.33497,-0.11475 -0.77934,-0.17278 -1.33491,-0.17278 h -2.82244 c -0.45366,0 -0.82716,0.0324 -1.1235,0.0972 -0.29465,0.0648 -0.5339,0.17138 -0.71747,0.3226 -0.18365,0.15112 -0.3179,0.35362 -0.40284,0.6074 -0.0848,0.25378 -0.12647,0.57638 -0.12647,0.96647 v 1.70756 c 0,0.34556 0.0431,0.63853 0.12956,0.87882 0.0864,0.24028 0.22378,0.43734 0.41203,0.5925 0.18975,0.15393 0.4336,0.26868 0.73303,0.34021 0.29935,0.0729 0.66507,0.10932 1.09566,0.10932 h 1.69294 l 1.81687,2.25628 z m -4.34316,-4.3134 c 0.003,0.24834 0.0401,0.43866 0.11119,0.57366 0.071,0.135 0.18975,0.2295 0.35953,0.2835 0.16969,0.0553 0.41512,0.0824 0.73453,0.0824 h 2.03541 c 0.33646,0 0.5879,-0.0271 0.75618,-0.0797 0.16819,-0.0527 0.28397,-0.14447 0.34875,-0.27807 0.0648,-0.13228 0.0972,-0.32934 0.0972,-0.58987 v -1.43494 c 0,-0.27534 -0.0386,-0.48459 -0.11578,-0.62634 -0.0787,-0.14307 -0.20371,-0.2416 -0.3749,-0.29559 -0.17288,-0.0553 -0.41982,-0.0823 -0.73931,-0.0823 h -1.98132 c -0.32559,0 -0.57412,0.0283 -0.7469,0.0863 -0.17288,0.0567 -0.29476,0.15657 -0.36572,0.29972 -0.0711,0.14166 -0.11119,0.35091 -0.11888,0.62635 z m 8.15991,-3.56494 h 1.53703 v 3.4921 c 0,0.37791 0.091,0.64116 0.27469,0.78966 0.18365,0.1484 0.48609,0.22275 0.912,0.22275 h 2.11875 c 0.26081,0 0.47212,-0.0324 0.63581,-0.0959 0.162,-0.0634 0.28387,-0.17147 0.36262,-0.32391 0.0802,-0.15121 0.12038,-0.351 0.12038,-0.60075 v -3.48392 h 1.53694 v 3.62024 c 0,0.378 -0.0415,0.69253 -0.12647,0.9449 -0.0849,0.25247 -0.21769,0.45628 -0.39966,0.61154 -0.18215,0.15656 -0.41831,0.26868 -0.70837,0.34012 -0.28857,0.0702 -0.6435,0.10528 -1.06172,0.10528 h -2.82395 c -0.8086,0 -1.40738,-0.16331 -1.79625,-0.48994 -0.38738,-0.32803 -0.58182,-0.83147 -0.58182,-1.5119 v -3.62024 z m 9.78786,5.6221 v -5.6221 h 6.56466 v 1.06237 h -5.02762 v 1.23104 h 4.86871 v 0.97996 h -4.86871 v 1.28644 h 5.02762 v 1.06228 h -6.56466 z m 10.4716,-4.5044 v 1.71835 h 3.21281 c 0.3225,0 0.54938,-0.0661 0.67903,-0.19838 0.12966,-0.13368 0.19594,-0.35371 0.20063,-0.6615 0,-0.30637 -0.0634,-0.5264 -0.18985,-0.66009 -0.12646,-0.13228 -0.35653,-0.19838 -0.68981,-0.19838 z m 5.74987,4.5044 h -1.54631 v -0.87328 c 0,-0.27947 -0.0941,-0.48187 -0.28237,-0.6074 -0.18675,-0.12563 -0.49997,-0.18769 -0.93826,-0.18769 h -2.97375 v 1.66837 h -1.54622 v -5.6221 h 4.8795 c 0.35793,0 0.67434,0.0297 0.94753,0.0891 0.27159,0.0593 0.50915,0.162 0.70987,0.30778 0.19894,0.14578 0.35494,0.34819 0.46444,0.60741 0.11109,0.25922 0.16509,0.58312 0.16509,0.97331 0,0.38878 -0.0833,0.69385 -0.25153,0.91247 -0.16828,0.22003 -0.39656,0.40491 -0.68362,0.55341 0.27619,0.0932 0.47531,0.16603 0.59259,0.21871 0.11888,0.054 0.22538,0.14307 0.321,0.27001 0.0941,0.12815 0.14203,0.30234 0.14203,0.52368 v 1.16625 z"
             inkscape:connector-curvature="0"
             style="fill:#ffffff;fill-rule:evenodd;stroke-width:0.26458332" />
          <text
             transform="scale(1.252,0.79872204)"
             id="text113"
             y="197.82932"
             x="125.72942"
             style="font-style:normal;font-variant:normal;font-weight:normal;font-stretch:normal;font-size:13.44457054px;line-height:1.25;font-family:'Cambria Math';-inkscape-font-specification:'Cambria Math';letter-spacing:0px;word-spacing:0px;fill:#ffffff;fill-opacity:1;stroke:none;stroke-width:0.33611426"
             xml:space="preserve"><tspan
               id="tspan121"
               style="font-style:normal;font-variant:normal;font-weight:normal;font-stretch:normal;font-size:9.85935211px;font-family:'Arial Narrow';-inkscape-font-specification:'Arial Narrow';fill:#ffffff;stroke-width:0.33611426"
               y="197.82932"
               x="125.72942"
               sodipodi:role="line">Y</tspan></text>
        </g>
      </g>
      <text
         id="text249"
         y="225.08607"
         x="24.283445"
         style="font-style:normal;font-variant:normal;font-weight:normal;font-stretch:normal;font-size:8.56226444px;line-height:27.7382679px;font-family:'Leelawadee UI';-inkscape-font-specification:'Leelawadee UI';letter-spacing:5.28414011px;word-spacing:0px;fill:#ffffff;fill-opacity:1;stroke:#003333;stroke-width:0.31205553;stroke-miterlimit:4;stroke-dasharray:none"
         xml:space="preserve"><tspan
           style="font-style:normal;font-variant:normal;font-weight:normal;font-stretch:normal;font-size:8.56226444px;line-height:27.7382679px;font-family:'Leelawadee UI';-inkscape-font-specification:'Leelawadee UI';letter-spacing:5.28414011px;fill:#ffffff;stroke:#003333;stroke-width:0.31205553;stroke-miterlimit:4;stroke-dasharray:none"
           y="225.08607"
           x="24.283445"
           id="tspan247"
           sodipodi:role="line">RESPONSIBILITY SEGREGATION</tspan></text>
      <text
         transform="scale(0.95338566,1.0488935)"
         id="text249-4"
         y="242.45477"
         x="34.672413"
         style="font-style:normal;font-variant:normal;font-weight:normal;font-stretch:normal;font-size:13.19987011px;line-height:42.76223373px;font-family:'Leelawadee UI';-inkscape-font-specification:'Leelawadee UI';letter-spacing:8.14620686px;word-spacing:0px;fill:#ffffff;fill-opacity:1;stroke:#003333;stroke-width:0.48107523;stroke-miterlimit:4;stroke-dasharray:none"
         xml:space="preserve"><tspan
           style="font-style:normal;font-variant:normal;font-weight:bold;font-stretch:normal;font-size:13.19987011px;line-height:42.76223373px;font-family:'Leelawadee UI';-inkscape-font-specification:'Leelawadee UI Bold';letter-spacing:3.58595252px;fill:#ffffff;stroke:#003333;stroke-width:0.48107523;stroke-miterlimit:4;stroke-dasharray:none"
           y="242.45477"
           x="34.672413"
           id="tspan247-2"
           sodipodi:role="line">EVENT SOURCING EDITION</tspan></text>
    </g>
  </g>
</svg>
